<?xml version="1.0" encoding="UTF-8"?><svg id="Layer_1" xmlns="http://www.w3.org/2000/svg" xmlns:xlink="http://www.w3.org/1999/xlink" viewBox="0 0 1200.51 778.59"><defs><style>.cls-1{fill:#8b8d8e;}.cls-1,.cls-2,.cls-3{stroke-width:0px;}.cls-2{fill:url(#radial-gradient);}.cls-3{fill:#004165;}</style><radialGradient id="radial-gradient" cx="669.54" cy="134.1" fx="669.54" fy="134.1" r="409.1" gradientUnits="userSpaceOnUse"><stop offset=".25" stop-color="#004165"/><stop offset=".5" stop-color="#0098db"/><stop offset="1" stop-color="#61c250"/></radialGradient></defs><path class="cls-1" d="M711.47,545.39h-31.8v48.39c0,3.8,3.11,6.91,6.91,6.91h24.89c15.27,0,27.65-12.37,27.65-27.65s-12.37-27.65-27.65-27.65ZM708.7,586.86h-10.71c-.97,0-1.73-.76-1.73-1.73v-25.92h12.44c7.6,0,13.82,6.22,13.82,13.83s-6.22,13.82-13.82,13.82Z"/><path class="cls-1" d="M786.12,566.13h-22.12v-20.74h-16.59v48.39c0,3.8,3.11,6.91,6.91,6.91h9.68v-16.87c0-1.93-1.52-3.46-3.46-3.46-.28,0-.28-.42,0-.42h25.58v13.82c0,3.8,3.11,6.91,6.91,6.91h9.68v-55.3h-16.59v20.74Z"/><path class="cls-1" d="M815.15,545.39v48.39c0,3.8,3.11,6.91,6.91,6.91h9.68v-55.3h-16.59Z"/><path class="cls-1" d="M567.15,531.04h6.37v25.89c2.02-1.12,6.58-2.23,11.04-2.23,13.91,0,24.32,7.69,24.32,22.85,0,14.26-10.62,23.26-26.65,23.26-4.88,0-10.3-.81-15.08-2.23v-67.54ZM573.52,594.44c2.66.71,5.74,1.01,8.71,1.01,12.32,0,20.18-6.68,20.18-17.9s-8.18-17.39-17.84-17.39c-4.77,0-8.38.81-11.04,2.02v32.26Z"/><path class="cls-1" d="M636.38,595.85l15.29-40.15h6.58l-25.06,62.29h-6.26l6.26-15.27-19.32-47.02h7.01l15.5,40.15Z"/><path class="cls-1" d="M213.49,600.69h-6.27v-59.19c1.35-.22,3.02-.43,5.01-.64,1.99-.22,3.86-.32,5.61-.32,4.11,0,7.67.44,10.67,1.33,3,.89,5.44,2.15,7.33,3.79,1.89,1.64,3.29,3.59,4.2,5.86.91,2.27,1.37,4.77,1.37,7.53,0,6.3-2.12,11.09-6.37,14.38-4.25,3.28-10.15,4.92-17.69,4.92h-1.82c-.67,0-1.35-.05-2.02-.15v22.49ZM213.49,572.99c.54.06,1.08.1,1.62.1h1.62c6.27,0,10.88-1.15,13.85-3.46,2.97-2.31,4.45-5.8,4.45-10.48,0-1.88-.3-3.62-.91-5.21-.61-1.59-1.6-2.97-2.98-4.14-1.38-1.17-3.18-2.1-5.41-2.78-2.22-.68-4.95-1.02-8.19-1.02h-1.92c-.67,0-1.38.17-2.12.5v26.5Z"/><path class="cls-1" d="M248.17,578.64c0-3.3.54-6.31,1.62-9.03,1.08-2.72,2.59-5.05,4.55-6.99,1.95-1.94,4.28-3.44,6.98-4.51,2.69-1.07,5.7-1.61,9-1.61s6.3.54,9,1.61c2.69,1.07,5.02,2.57,6.98,4.51,1.96,1.95,3.47,4.28,4.55,6.99,1.08,2.72,1.62,5.73,1.62,9.03s-.54,6.31-1.62,9.03c-1.08,2.72-2.6,5.05-4.55,6.99-1.96,1.94-4.28,3.45-6.98,4.52-2.7,1.07-5.7,1.6-9,1.6s-6.3-.53-9-1.6c-2.7-1.07-5.02-2.57-6.98-4.52-1.96-1.94-3.47-4.27-4.55-6.99-1.08-2.72-1.62-5.73-1.62-9.03ZM286.28,578.64c0-2.56-.4-4.87-1.21-6.95-.81-2.08-1.92-3.85-3.34-5.33-1.41-1.47-3.1-2.61-5.06-3.41-1.96-.8-4.08-1.2-6.37-1.2s-4.52.4-6.47,1.2c-1.96.8-3.64,1.93-5.06,3.41-1.41,1.47-2.51,3.25-3.29,5.33-.78,2.08-1.16,4.4-1.16,6.95s.39,4.88,1.16,6.96c.77,2.08,1.87,3.85,3.29,5.33,1.42,1.47,3.1,2.61,5.06,3.41,1.96.8,4.11,1.2,6.47,1.2s4.41-.4,6.37-1.2c1.96-.8,3.64-1.93,5.06-3.41,1.42-1.47,2.53-3.25,3.34-5.33.81-2.08,1.21-4.4,1.21-6.96Z"/><path class="cls-1" d="M342.8,595.13l11.02-38.52h6.07l-13.35,44.08h-7.38l-10.62-37.51-10.62,37.51h-7.38l-13.35-44.08h6.37l11.02,38.52,10.92-38.52h6.27l11.02,38.52Z"/><path class="cls-1" d="M370.7,578.04v.2c0,2.7.46,5.11,1.36,7.23.91,2.13,2.12,3.93,3.64,5.41,1.52,1.48,3.25,2.61,5.21,3.39,1.95.77,4.01,1.16,6.17,1.16,3.17,0,5.91-.4,8.24-1.21,2.33-.81,4.6-2.05,6.82-3.74v6.07c-1.96,1.48-4.26,2.56-6.92,3.24-2.66.67-5.38,1.01-8.14,1.01-3.17,0-6.12-.5-8.85-1.51-2.73-1-5.1-2.46-7.13-4.37-2.02-1.91-3.61-4.24-4.75-6.99-1.15-2.75-1.72-5.84-1.72-9.28,0-3.17.54-6.11,1.62-8.84,1.08-2.72,2.54-5.06,4.4-7.04,1.85-1.97,4.06-3.51,6.62-4.61,2.56-1.1,5.32-1.65,8.29-1.65,5.59,0,10.07,1.49,13.45,4.48,3.37,2.98,5.05,7.39,5.05,13.24v3.82h-33.36ZM398,572.98c-.2-4-1.45-6.85-3.74-8.56-2.29-1.71-5.29-2.56-9-2.56-3.44,0-6.44.96-9,2.87-2.56,1.91-4.28,4.66-5.16,8.25h26.89Z"/><path class="cls-1" d="M421.76,600.69h-6.06v-39.43c2.36-1.48,4.92-2.65,7.68-3.49,2.76-.85,5.66-1.27,8.7-1.27,2.36,0,4.82.3,7.38.91v5.95c-1.35-.46-2.73-.76-4.15-.89-1.41-.13-2.63-.2-3.64-.2-2.16,0-4.06.2-5.71.6-1.65.4-3.05.93-4.2,1.6v36.23Z"/><path class="cls-1" d="M451.78,578.04v.2c0,2.7.46,5.11,1.36,7.23.91,2.13,2.12,3.93,3.64,5.41,1.52,1.48,3.25,2.61,5.21,3.39,1.95.77,4.01,1.16,6.17,1.16,3.17,0,5.91-.4,8.24-1.21,2.33-.81,4.6-2.05,6.82-3.74v6.07c-1.96,1.48-4.26,2.56-6.92,3.24-2.66.67-5.38,1.01-8.14,1.01-3.17,0-6.12-.5-8.85-1.51-2.73-1-5.1-2.46-7.13-4.37-2.02-1.91-3.61-4.24-4.75-6.99-1.15-2.75-1.72-5.84-1.72-9.28,0-3.17.54-6.11,1.62-8.84,1.08-2.72,2.54-5.06,4.4-7.04,1.85-1.97,4.06-3.51,6.62-4.61,2.56-1.1,5.32-1.65,8.29-1.65,5.59,0,10.07,1.49,13.45,4.48,3.37,2.98,5.06,7.39,5.06,13.24v3.82h-33.37ZM479.08,572.98c-.2-4-1.45-6.85-3.74-8.56-2.29-1.71-5.29-2.56-9-2.56-3.44,0-6.44.96-9,2.87-2.56,1.91-4.28,4.66-5.16,8.25h26.89Z"/><path class="cls-1" d="M533.37,599.17c-2.36.54-4.75.94-7.18,1.21-2.43.27-4.82.41-7.18.41-3.84,0-7.33-.49-10.46-1.46-3.14-.97-5.81-2.4-8.04-4.28-2.22-1.87-3.96-4.19-5.21-6.94-1.25-2.75-1.87-5.91-1.87-9.47s.64-6.72,1.92-9.47c1.28-2.75,3.03-5.06,5.26-6.95,2.22-1.87,4.8-3.3,7.74-4.27,2.93-.97,6.05-1.46,9.35-1.46,1.68,0,3.42.17,5.21.51,1.78.34,3.25.85,4.39,1.52v-27.5h6.07v68.14ZM527.3,564.24c-1.15-.68-2.53-1.23-4.14-1.65-1.61-.42-3.44-.63-5.46-.63-2.56,0-4.94.37-7.13,1.1-2.19.73-4.09,1.8-5.71,3.2-1.62,1.4-2.9,3.14-3.84,5.21-.94,2.07-1.41,4.45-1.41,7.12,0,5.35,1.77,9.48,5.31,12.38,3.54,2.9,8.24,4.35,14.1,4.35h4.2c1.38,0,2.74-.13,4.09-.38v-30.71Z"/><path class="cls-2" d="M790.45,159.18c-44.58,0-89.09,17.4-90.91,24.06-.38,1.39,1.59,2.56,4.63,2.56,8.62,0,27.46-10.9,68.81-10.9,19.47,0,39.75,3.37,39.75,8.5,0,4.49-14.37,7.54-14.37,13.16,0,2.72,3.83,4.96,14.53,4.96,36.56,0,84.94,14.12,84.94,28.87,0,2.08-1.28,3.36-3.19,3.36-7.19,0-30.82-12.99-73.76-12.99-78.55,0-125.33,52.92-125.33,71.36,0,4.66,2.88,7.55,7.19,7.55,15.12,0,25.21-15.64,58.22-15.64,25.23,0,32.34,9.7,48.15,9.7,6.73,0,13.69-2.56,13.69-8.5,0-9.14-11.33-14.92-30.16-19.24-15.97-3.69-24.91-6.25-24.91-12.34,0-11.08,25.69-20.21,52.36-20.21,89.41,0,127.88,61.1,133.32,61.1,1.26,0,1.92-.96,1.92-3.37,0-17.96-20.92-52.44-43.43-71.36-33.53-28.07-59.07-34.16-59.07-37.85,0-.81,1.12-1.12,2.24-1.12,7.74,0,40.01,13.72,66.58,37.53,36.68,32.87,57.21,84.17,57.21,124.81,0,8.13-.91,12.9-3.92,12.9-5.9,0-13.38-30.01-38.76-59.62-21.36-24.93-57.32-49.4-90.68-49.4-8.31,0-13.73,1.44-13.73,6.41,0,13.73,48.7,26.35,48.7,75.4v.14c-.23,4.43-.26,7.77-1.28,11.23-4.01,13.67,8.04,29.71,15.66,28.22,13.7-2.68,11.28-41.52,11.51-36.79l-.02-.56c-1.3-15.11-4.81-20.45-4.81-28.41,0-5.45,2.24-8.01,5.59-8.01,5.27,0,17.89,8.18,31.94,28.23,14.05,20.05,24.43,49.88,24.43,82.59,0,22.14,1.15,34.1,6.41,34.1,9.26,0,23.44-35.78,23.44-76.25,0-112.97-89.32-204.18-202.85-204.18Z"/><path class="cls-3" d="M350.82,499.68l-36.05-111.93-17.6,111.93h-35.21l24.7-160.21h43.72l37.76,117.32,36.62-117.32h43.72l24.98,160.21h-35.77l-17.6-111.93-36.34,111.93h-32.93Z"/><path class="cls-3" d="M533.37,499.68h-36.05v-160.21h36.05v160.21Z"/><path class="cls-3" d="M567.15,339.47h36.05v160.21h-36.05v-160.21ZM661.69,339.47h42.02l-59.9,78.22,63.88,81.99h-42.59l-61.04-79.02,57.63-81.19Z"/><path class="cls-3" d="M831.75,469.74v29.94h-109.3v-160.21h109.3v29.94h-73.81v35.07h66.15v29.39h-66.15v35.87h73.81Z"/></svg>