<?xml version="1.0" encoding="UTF-8"?>
<!DOCTYPE svg PUBLIC "-//W3C//DTD SVG 1.1//EN" "http://www.w3.org/Graphics/SVG/1.1/DTD/svg11.dtd">
<!-- Creator: CorelDRAW -->
<svg xmlns="http://www.w3.org/2000/svg" xml:space="preserve" width="1165px" height="271px" version="1.1" style="shape-rendering:geometricPrecision; text-rendering:geometricPrecision; image-rendering:optimizeQuality; fill-rule:evenodd; clip-rule:evenodd"
viewBox="0 0 708.09 164.8"
 xmlns:xlink="http://www.w3.org/1999/xlink"
 xmlns:xodm="http://www.corel.com/coreldraw/odm/2003">
 <defs>
  <style type="text/css">
   <![CDATA[
    .str0 {stroke:black;stroke-width:1.22;stroke-miterlimit:22.9256}
    .fil0 {fill:white}
    .fil2 {fill:black;fill-rule:nonzero}
    .fil1 {fill:black;fill-rule:nonzero}
   ]]>
  </style>
 </defs>
 <g id="Capa_x0020_1">
  <metadata id="CorelCorpID_0Corel-Layer"/>
  <g>
   <path class="fil0" d="M74.32 5.65l601.66 0c20.02,0 31.89,16.37 26.38,36.38l-22.19 80.74c-5.5,20.01 -26.38,36.38 -46.39,36.38l-601.67 0c-20.01,0 -31.88,-16.37 -26.38,-36.38l22.2 -80.74c5.5,-20.01 26.37,-36.38 46.39,-36.38z"/>
   <path id="_1" class="fil1" d="M675.98 11.29l-601.67 0 0.01 -11.29 601.67 0 0 0 -0.01 11.29zm30.52 32.62l-8.27 -3.75 0 0 0.38 -1.55 0.3 -1.5 0.21 -1.46 0.14 -1.42 0.06 -1.37 -0.02 -1.34 -0.08 -1.29 -0.15 -1.25 -0.22 -1.22 -0.28 -1.18 -0.35 -1.14 -0.41 -1.11 -0.47 -1.09 -0.54 -1.05 -0.6 -1.02 -0.67 -0.98 -0.73 -0.95 -0.81 -0.91 -0.86 -0.87 -0.94 -0.83 -1 -0.79 -1.07 -0.73 -1.14 -0.68 -1.2 -0.62 -1.27 -0.57 -1.32 -0.49 -1.39 -0.43 -1.45 -0.36 -1.51 -0.29 -1.57 -0.21 -1.62 -0.12 -1.67 -0.05 0.01 -11.29 2.03 0.05 1.98 0.16 1.94 0.25 1.89 0.36 1.84 0.46 1.78 0.55 1.74 0.65 1.67 0.75 1.62 0.84 1.56 0.93 1.49 1.02 1.43 1.12 1.36 1.2 1.29 1.3 1.21 1.38 1.13 1.46 1.05 1.55 0.96 1.62 0.87 1.7 0.78 1.77 0.68 1.85 0.57 1.9 0.47 1.95 0.36 2.01 0.25 2.05 0.13 2.08 0.02 2.12 -0.09 2.14 -0.2 2.15 -0.32 2.17 -0.43 2.19 -0.55 2.18 0 0zm-30.47 76.98l22.2 -80.73 8.27 3.75 -22.2 80.73 0 0 -8.27 -3.75zm-42.26 43.91l0.01 -11.29 0 0 1.71 -0.05 1.71 -0.13 1.72 -0.21 1.72 -0.29 1.72 -0.38 1.71 -0.45 1.7 -0.53 1.69 -0.6 1.67 -0.68 1.66 -0.74 1.63 -0.82 1.6 -0.87 1.58 -0.94 1.55 -1 1.51 -1.06 1.47 -1.12 1.43 -1.16 1.39 -1.21 1.34 -1.26 1.29 -1.31 1.23 -1.34 1.17 -1.38 1.12 -1.41 1.05 -1.45 0.99 -1.47 0.92 -1.5 0.85 -1.51 0.77 -1.53 0.71 -1.54 0.62 -1.56 0.55 -1.56 0.47 -1.56 8.27 3.75 -0.65 2.17 -0.74 2.12 -0.84 2.08 -0.92 2.03 -1.01 1.98 -1.08 1.94 -1.16 1.88 -1.23 1.83 -1.29 1.78 -1.36 1.72 -1.42 1.67 -1.48 1.61 -1.53 1.55 -1.58 1.49 -1.64 1.43 -1.68 1.37 -1.72 1.3 -1.76 1.23 -1.8 1.16 -1.84 1.1 -1.86 1.02 -1.9 0.94 -1.93 0.87 -1.95 0.79 -1.97 0.7 -1.99 0.62 -2.01 0.53 -2.02 0.44 -2.03 0.35 -2.04 0.25 -2.05 0.16 -2.05 0.05 0 0zm-601.65 -11.29l601.66 0 -0.01 11.29 -601.66 0 0 0 0.01 -11.29zm-30.53 -32.62l8.28 3.75 0 0 -0.39 1.55 -0.3 1.5 -0.21 1.46 -0.14 1.42 -0.05 1.37 0.01 1.33 0.08 1.3 0.16 1.25 0.21 1.21 0.29 1.18 0.34 1.15 0.41 1.12 0.47 1.07 0.54 1.06 0.61 1.02 0.66 0.98 0.74 0.95 0.8 0.91 0.87 0.87 0.93 0.83 1.01 0.79 1.07 0.73 1.13 0.68 1.2 0.62 1.27 0.56 1.33 0.5 1.39 0.43 1.45 0.36 1.51 0.29 1.56 0.21 1.62 0.12 1.68 0.05 -0.01 11.29 -2.03 -0.05 -1.99 -0.16 -1.93 -0.25 -1.89 -0.36 -1.84 -0.46 -1.79 -0.55 -1.73 -0.65 -1.68 -0.75 -1.62 -0.84 -1.55 -0.93 -1.5 -1.02 -1.43 -1.12 -1.36 -1.2 -1.28 -1.3 -1.22 -1.38 -1.13 -1.46 -1.05 -1.55 -0.96 -1.62 -0.87 -1.7 -0.78 -1.78 -0.67 -1.84 -0.58 -1.9 -0.46 -1.95 -0.36 -2.01 -0.25 -2.05 -0.14 -2.08 -0.02 -2.12 0.09 -2.14 0.21 -2.15 0.32 -2.17 0.43 -2.19 0.54 -2.18 0 0zm30.47 -76.98l-22.19 80.73 -8.28 -3.75 22.2 -80.73 0 0 8.27 3.75zm42.26 -43.91l-0.01 11.29 0 0 -1.71 0.05 -1.71 0.13 -1.72 0.21 -1.72 0.29 -1.71 0.38 -1.71 0.45 -1.7 0.53 -1.69 0.6 -1.67 0.68 -1.66 0.74 -1.63 0.82 -1.61 0.87 -1.58 0.94 -1.54 1 -1.52 1.06 -1.47 1.12 -1.43 1.16 -1.39 1.21 -1.33 1.26 -1.29 1.31 -1.23 1.34 -1.18 1.38 -1.11 1.41 -1.06 1.45 -0.98 1.47 -0.92 1.5 -0.85 1.51 -0.78 1.53 -0.7 1.54 -0.63 1.56 -0.55 1.56 -0.47 1.56 -8.27 -3.75 0.65 -2.17 0.75 -2.12 0.83 -2.08 0.93 -2.03 1 -1.98 1.09 -1.94 1.15 -1.88 1.23 -1.83 1.3 -1.78 1.36 -1.72 1.42 -1.67 1.47 -1.61 1.54 -1.55 1.58 -1.49 1.63 -1.43 1.68 -1.37 1.72 -1.3 1.76 -1.23 1.8 -1.16 1.84 -1.1 1.87 -1.02 1.9 -0.94 1.92 -0.87 1.95 -0.79 1.97 -0.7 1.99 -0.62 2.01 -0.53 2.02 -0.44 2.04 -0.35 2.04 -0.25 2.04 -0.16 2.05 -0.05 0 0z"/>
  </g>
  <path class="fil2 str0" d="M102.97 111.11l-9.44 -18c-0.94,-1.79 -1.84,-3.27 -2.72,-4.47 -0.87,-1.21 -1.78,-2.16 -2.71,-2.88 -0.92,-0.7 -1.92,-1.23 -2.99,-1.53 -1.07,-0.31 -2.25,-0.46 -3.57,-0.46l-6.9 0 0 27.34 -5.83 0 0 -62.75 18.07 0c2.36,0 4.65,0.34 6.86,1.05 2.19,0.7 4.15,1.73 5.87,3.1 1.72,1.38 3.11,3.1 4.14,5.16 1.03,2.08 1.55,4.48 1.55,7.22 0,2.21 -0.33,4.25 -1,6.12 -0.67,1.85 -1.63,3.51 -2.87,4.96 -1.24,1.44 -2.73,2.66 -4.5,3.66 -1.77,1.02 -3.76,1.77 -5.97,2.26l0 0.18c0.85,0.34 1.61,0.8 2.31,1.36 0.7,0.55 1.38,1.22 2.03,2.01 0.66,0.78 1.3,1.69 1.95,2.71 0.64,1.03 1.31,2.2 2,3.51l10.53 19.45 -6.81 0zm-28.33 -57.37l0 24.74 10.4 0c2.11,0 4.02,-0.3 5.77,-0.91 1.75,-0.61 3.24,-1.49 4.48,-2.63 1.24,-1.12 2.2,-2.49 2.88,-4.09 0.69,-1.6 1.03,-3.41 1.03,-5.41 0,-3.65 -1.16,-6.5 -3.51,-8.58 -2.34,-2.08 -5.73,-3.12 -10.17,-3.12l-10.88 0zm47.56 58.27c-1.17,0 -2.17,-0.4 -2.97,-1.23 -0.83,-0.8 -1.23,-1.8 -1.23,-2.97 0,-1.18 0.4,-2.19 1.2,-3 0.8,-0.82 1.8,-1.23 3,-1.23 0.58,0 1.12,0.11 1.63,0.33 0.51,0.23 0.95,0.51 1.33,0.87 0.39,0.37 0.69,0.81 0.92,1.33 0.23,0.54 0.35,1.1 0.35,1.7 0,0.58 -0.12,1.14 -0.35,1.64 -0.23,0.51 -0.53,0.96 -0.92,1.33 -0.38,0.38 -0.82,0.68 -1.33,0.9 -0.51,0.23 -1.05,0.33 -1.63,0.33zm58.03 -0.9l0 -29.31 -34.25 0 0 29.31 -5.82 0 0 -62.75 5.82 0 0 28.15 34.25 0 0 -28.15 5.83 0 0 62.75 -5.83 0zm34.13 8.16c-1.77,4.38 -3.77,7.62 -6.06,9.74 -2.27,2.11 -5.03,3.17 -8.26,3.17 -1.61,0 -2.96,-0.19 -4.08,-0.57l0 -5.24c0.65,0.24 1.3,0.4 1.95,0.52 0.65,0.12 1.33,0.18 1.98,0.18 1.84,0 3.44,-0.58 4.8,-1.73 1.34,-1.15 2.52,-2.9 3.51,-5.23l3.89 -9.21 -17.22 -44.61 6.22 0 12.82 35.5c0.18,0.48 0.34,1 0.51,1.6 0.16,0.6 0.31,1.19 0.46,1.78l0.21 0c0.15,-0.5 0.28,-1 0.42,-1.51 0.13,-0.51 0.31,-1.08 0.55,-1.69l13.61 -35.68 5.9 0 -21.21 52.98zm59.97 -8.16l0 -7.86 -0.18 0c-1.48,2.83 -3.62,5.04 -6.37,6.59 -2.76,1.57 -5.9,2.35 -9.39,2.35 -2.81,0 -5.35,-0.52 -7.65,-1.55 -2.29,-1.05 -4.26,-2.54 -5.89,-4.5 -1.63,-1.96 -2.9,-4.32 -3.79,-7.1 -0.89,-2.78 -1.33,-5.92 -1.33,-9.41 0,-3.63 0.49,-6.93 1.46,-9.94 0.99,-2.99 2.38,-5.56 4.17,-7.71 1.79,-2.15 3.96,-3.81 6.48,-4.99 2.53,-1.18 5.34,-1.78 8.43,-1.78 6.45,0 11.09,2.59 13.88,7.76l0.18 0 0 -28.2 5.65 0 0 66.34 -5.65 0zm0 -27.07c0,-1.96 -0.34,-3.8 -1.02,-5.48 -0.67,-1.69 -1.6,-3.17 -2.79,-4.43 -1.21,-1.25 -2.65,-2.25 -4.33,-2.98 -1.68,-0.74 -3.53,-1.09 -5.55,-1.09 -2.22,0 -4.27,0.43 -6.14,1.31 -1.87,0.88 -3.48,2.14 -4.81,3.8 -1.33,1.64 -2.36,3.66 -3.11,6.02 -0.74,2.36 -1.12,5.05 -1.12,8.06 0,2.83 0.35,5.37 1.02,7.62 0.67,2.26 1.63,4.16 2.87,5.7 1.24,1.55 2.72,2.73 4.45,3.55 1.72,0.82 3.65,1.23 5.74,1.23 2.28,0 4.34,-0.41 6.17,-1.23 1.82,-0.82 3.38,-1.94 4.64,-3.37 1.27,-1.44 2.26,-3.11 2.95,-5.04 0.69,-1.93 1.03,-3.99 1.03,-6.18l0 -7.49zm42.33 -12c-1.32,-0.97 -3.01,-1.45 -5.08,-1.45 -1.48,0 -2.8,0.29 -3.93,0.85 -1.15,0.57 -2.14,1.33 -3.01,2.31 -0.86,0.95 -1.58,2.07 -2.18,3.34 -0.61,1.27 -1.09,2.59 -1.45,3.96 -0.37,1.38 -0.62,2.77 -0.79,4.16 -0.16,1.4 -0.24,2.73 -0.24,3.98l0 21.92 -5.55 0 0 -44.82 5.55 0 0 9.61 0.18 0c0.53,-1.63 1.18,-3.11 1.99,-4.4 0.81,-1.3 1.73,-2.4 2.78,-3.28 1.04,-0.9 2.2,-1.57 3.43,-2.03 1.25,-0.47 2.54,-0.71 3.92,-0.71 0.91,0 1.72,0.06 2.43,0.18 0.71,0.11 1.36,0.29 1.95,0.53l0 5.85zm25.2 40.15c-3.31,0 -6.3,-0.55 -8.93,-1.66 -2.65,-1.12 -4.9,-2.69 -6.77,-4.72 -1.87,-2.03 -3.29,-4.45 -4.27,-7.29 -1,-2.84 -1.5,-5.98 -1.5,-9.43 0,-3.73 0.53,-7.08 1.57,-10.03 1.06,-2.95 2.56,-5.45 4.48,-7.51 1.95,-2.06 4.29,-3.63 7.03,-4.71 2.75,-1.09 5.81,-1.63 9.19,-1.63 3.24,0 6.15,0.54 8.74,1.6 2.59,1.06 4.79,2.62 6.6,4.62 1.81,2.02 3.2,4.48 4.15,7.37 0.97,2.89 1.45,6.18 1.45,9.86 0,3.51 -0.51,6.69 -1.51,9.57 -1,2.89 -2.43,5.35 -4.3,7.43 -1.87,2.08 -4.14,3.68 -6.83,4.83 -2.67,1.13 -5.71,1.7 -9.1,1.7zm0.45 -42.13c-2.46,0 -4.68,0.41 -6.66,1.27 -1.99,0.85 -3.69,2.07 -5.11,3.7 -1.42,1.61 -2.51,3.6 -3.27,5.96 -0.77,2.35 -1.14,5.02 -1.14,8 0,2.8 0.37,5.33 1.14,7.57 0.76,2.26 1.83,4.18 3.22,5.8 1.39,1.6 3.08,2.84 5.07,3.69 1.99,0.87 4.2,1.3 6.66,1.3 2.51,0 4.74,-0.42 6.67,-1.26 1.92,-0.82 3.55,-2.03 4.9,-3.63 1.34,-1.6 2.36,-3.54 3.04,-5.85 0.69,-2.31 1.03,-4.93 1.03,-7.89 0,-6.04 -1.34,-10.67 -4.03,-13.87 -2.69,-3.2 -6.53,-4.79 -11.52,-4.79zm33.59 41.05l0 -62.75 17.14 0c2.6,0 4.94,0.34 7.02,1.05 2.09,0.7 3.87,1.68 5.33,2.95 1.48,1.27 2.6,2.8 3.39,4.58 0.8,1.77 1.18,3.73 1.18,5.87 0,1.81 -0.25,3.49 -0.74,5.08 -0.5,1.57 -1.21,3 -2.14,4.3 -0.94,1.3 -2.08,2.44 -3.44,3.38 -1.36,0.95 -2.89,1.7 -4.61,2.25l0 0.18c2.1,0.2 4.03,0.71 5.77,1.53 1.71,0.82 3.21,1.88 4.43,3.2 1.23,1.31 2.18,2.85 2.86,4.61 0.67,1.77 1.01,3.69 1.01,5.8 0,2.64 -0.48,5.08 -1.45,7.28 -0.95,2.19 -2.31,4.09 -4.05,5.69 -1.73,1.58 -3.81,2.82 -6.2,3.69 -2.39,0.88 -5.03,1.31 -7.93,1.31l-17.57 0zm5.83 -57.37l0 22.23 8.14 0c2.12,0 4.05,-0.28 5.77,-0.84 1.73,-0.55 3.19,-1.34 4.42,-2.39 1.22,-1.04 2.16,-2.31 2.82,-3.81 0.66,-1.47 0.99,-3.15 0.99,-5.02 0,-6.78 -4.23,-10.17 -12.69,-10.17l-9.45 0zm0 27.52l0 24.56 10.81 0c4.65,0 8.22,-1.09 10.72,-3.25 2.49,-2.17 3.75,-5.25 3.75,-9.25 0,-8.04 -5.49,-12.06 -16.44,-12.06l-8.84 0zm61.6 30.93c-3.32,0 -6.31,-0.55 -8.94,-1.66 -2.64,-1.12 -4.9,-2.69 -6.77,-4.72 -1.86,-2.03 -3.28,-4.45 -4.27,-7.29 -1,-2.84 -1.49,-5.98 -1.49,-9.43 0,-3.73 0.52,-7.08 1.57,-10.03 1.06,-2.95 2.55,-5.45 4.48,-7.51 1.94,-2.06 4.29,-3.63 7.02,-4.71 2.75,-1.09 5.81,-1.63 9.19,-1.63 3.24,0 6.16,0.54 8.74,1.6 2.6,1.06 4.8,2.62 6.6,4.62 1.81,2.02 3.2,4.48 4.16,7.37 0.97,2.89 1.45,6.18 1.45,9.86 0,3.51 -0.51,6.69 -1.51,9.57 -1,2.89 -2.44,5.35 -4.31,7.43 -1.86,2.08 -4.13,3.68 -6.82,4.83 -2.68,1.13 -5.71,1.7 -9.1,1.7zm0.45 -42.13c-2.47,0 -4.68,0.41 -6.67,1.27 -1.99,0.85 -3.69,2.07 -5.11,3.7 -1.42,1.61 -2.51,3.6 -3.27,5.96 -0.76,2.35 -1.14,5.02 -1.14,8 0,2.8 0.38,5.33 1.14,7.57 0.76,2.26 1.84,4.18 3.23,5.8 1.39,1.6 3.08,2.84 5.06,3.69 1.99,0.87 4.2,1.3 6.67,1.3 2.51,0 4.73,-0.42 6.66,-1.26 1.93,-0.82 3.56,-2.03 4.9,-3.63 1.35,-1.6 2.36,-3.54 3.05,-5.85 0.69,-2.31 1.03,-4.93 1.03,-7.89 0,-6.04 -1.34,-10.67 -4.03,-13.87 -2.69,-3.2 -6.53,-4.79 -11.52,-4.79zm69.71 37.6c0,8.32 -1.9,14.49 -5.69,18.5 -3.8,4.02 -9.64,6.02 -17.54,6.02 -4.92,0 -9.58,-1.09 -13.97,-3.27l0 -5.69c4.88,2.69 9.53,4.03 13.95,4.03 11.73,0 17.6,-6.19 17.6,-18.54l0 -5.37 -0.18 0c-3.43,5.91 -8.69,8.85 -15.76,8.85 -2.78,0 -5.3,-0.51 -7.6,-1.54 -2.29,-1.02 -4.26,-2.5 -5.89,-4.42 -1.63,-1.93 -2.91,-4.28 -3.81,-7.04 -0.91,-2.75 -1.36,-5.87 -1.36,-9.35 0,-3.68 0.48,-7.02 1.45,-10.06 0.95,-3.02 2.33,-5.62 4.11,-7.77 1.79,-2.16 3.94,-3.84 6.47,-5.02 2.52,-1.18 5.36,-1.78 8.51,-1.78 6.34,0 10.97,2.57 13.88,7.71l0.18 0 0 -6.63 5.65 0 0 41.37zm-5.65 -23.8c0,-1.87 -0.34,-3.64 -1.01,-5.3 -0.68,-1.66 -1.6,-3.13 -2.8,-4.38 -1.21,-1.26 -2.63,-2.26 -4.28,-3 -1.65,-0.75 -3.47,-1.12 -5.46,-1.12 -2.34,0 -4.45,0.44 -6.35,1.35 -1.88,0.92 -3.48,2.2 -4.81,3.86 -1.34,1.66 -2.36,3.69 -3.08,6.07 -0.72,2.39 -1.07,5.06 -1.07,8.03 0,2.75 0.34,5.23 1.01,7.46 0.67,2.23 1.62,4.11 2.84,5.65 1.24,1.55 2.72,2.75 4.45,3.6 1.75,0.85 3.69,1.27 5.82,1.27 2.22,0 4.24,-0.41 6.06,-1.21 1.81,-0.79 3.36,-1.91 4.65,-3.33 1.28,-1.41 2.29,-3.08 2.99,-4.99 0.7,-1.92 1.04,-3.98 1.04,-6.2l0 -7.76zm38.34 28.33c-3.31,0 -6.3,-0.55 -8.93,-1.66 -2.65,-1.12 -4.9,-2.69 -6.77,-4.72 -1.87,-2.03 -3.29,-4.45 -4.27,-7.29 -1.01,-2.84 -1.5,-5.98 -1.5,-9.43 0,-3.73 0.52,-7.08 1.57,-10.03 1.06,-2.95 2.56,-5.45 4.48,-7.51 1.95,-2.06 4.29,-3.63 7.03,-4.71 2.74,-1.09 5.81,-1.63 9.18,-1.63 3.25,0 6.16,0.54 8.74,1.6 2.6,1.06 4.8,2.62 6.61,4.62 1.81,2.02 3.2,4.48 4.15,7.37 0.97,2.89 1.45,6.18 1.45,9.86 0,3.51 -0.51,6.69 -1.51,9.57 -1,2.89 -2.43,5.35 -4.3,7.43 -1.87,2.08 -4.14,3.68 -6.83,4.83 -2.67,1.13 -5.71,1.7 -9.1,1.7zm0.45 -42.13c-2.47,0 -4.68,0.41 -6.66,1.27 -1.99,0.85 -3.69,2.07 -5.11,3.7 -1.42,1.61 -2.51,3.6 -3.28,5.96 -0.76,2.35 -1.13,5.02 -1.13,8 0,2.8 0.37,5.33 1.13,7.57 0.77,2.26 1.84,4.18 3.23,5.8 1.39,1.6 3.08,2.84 5.07,3.69 1.98,0.87 4.2,1.3 6.66,1.3 2.51,0 4.74,-0.42 6.66,-1.26 1.93,-0.82 3.56,-2.03 4.91,-3.63 1.34,-1.6 2.36,-3.54 3.04,-5.85 0.69,-2.31 1.03,-4.93 1.03,-7.89 0,-6.04 -1.34,-10.67 -4.03,-13.87 -2.69,-3.2 -6.53,-4.79 -11.52,-4.79zm51.88 40.5c-1.93,0.97 -4.02,1.45 -6.3,1.45 -7.21,0 -10.83,-4.17 -10.83,-12.51l0 -28.28 -7.89 0 0 -4.93 7.89 0 0 -11.25 5.65 -1.84 0 13.09 11.48 0 0 4.93 -11.48 0 0 27.39c0,3.03 0.49,5.21 1.48,6.56 0.99,1.33 2.64,2 5,2 1.74,0 3.4,-0.52 5,-1.57l0 4.96zm35.12 0.55l0 -7.98 -0.18 0c-1.45,2.87 -3.45,5.1 -5.97,6.68 -2.53,1.59 -5.38,2.38 -8.56,2.38 -2.17,0 -4.11,-0.31 -5.85,-0.93 -1.74,-0.61 -3.21,-1.48 -4.42,-2.6 -1.22,-1.13 -2.15,-2.48 -2.81,-4.06 -0.66,-1.58 -0.98,-3.32 -0.98,-5.23 0,-4.06 1.25,-7.31 3.76,-9.71 2.51,-2.42 6.31,-3.99 11.39,-4.72l13.62 -1.98c0,-8.6 -3.34,-12.9 -10.05,-12.9 -5.25,0 -10.12,1.91 -14.6,5.73l0 -6.12c0.94,-0.66 2,-1.27 3.18,-1.81 1.2,-0.54 2.45,-1 3.77,-1.41 1.31,-0.38 2.67,-0.68 4.06,-0.91 1.41,-0.22 2.75,-0.33 4.08,-0.33 5.01,0 8.8,1.41 11.36,4.2 2.57,2.81 3.85,6.98 3.85,12.54l0 29.16 -5.65 0zm-11.58 -21.77c-2.03,0.29 -3.75,0.65 -5.18,1.09 -1.44,0.44 -2.62,1.04 -3.56,1.78 -0.94,0.75 -1.63,1.66 -2.06,2.75 -0.43,1.11 -0.66,2.45 -0.66,4.07 0,1.19 0.21,2.3 0.65,3.33 0.41,1.01 1.03,1.9 1.83,2.64 0.81,0.75 1.78,1.33 2.95,1.74 1.15,0.4 2.46,0.61 3.93,0.61 1.98,0 3.81,-0.38 5.48,-1.14 1.66,-0.76 3.11,-1.82 4.32,-3.15 1.21,-1.34 2.16,-2.96 2.85,-4.83 0.69,-1.86 1.03,-3.9 1.03,-6.09l0 -4.42 -11.58 1.62z"/>
 </g>
</svg>
