<?xml version="1.0" encoding="UTF-8"?>
<!DOCTYPE svg PUBLIC "-//W3C//DTD SVG 1.1//EN" "http://www.w3.org/Graphics/SVG/1.1/DTD/svg11.dtd">
<!-- Creator: CorelDRAW -->
<svg xmlns="http://www.w3.org/2000/svg" xml:space="preserve" width="1169px" height="271px" version="1.1" style="shape-rendering:geometricPrecision; text-rendering:geometricPrecision; image-rendering:optimizeQuality; fill-rule:evenodd; clip-rule:evenodd"
viewBox="0 0 711.53 165"
 xmlns:xlink="http://www.w3.org/1999/xlink"
 xmlns:xodm="http://www.corel.com/coreldraw/odm/2003">
 <defs>
  <style type="text/css">
   <![CDATA[
    .str0 {stroke:black;stroke-width:1.22;stroke-miterlimit:22.9256}
    .fil0 {fill:white}
    .fil2 {fill:black;fill-rule:nonzero}
    .fil1 {fill:black;fill-rule:nonzero}
   ]]>
  </style>
 </defs>
 <g id="Capa_x0020_1">
  <metadata id="CorelCorpID_0Corel-Layer"/>
  <g>
   <path class="fil0" d="M75.69 5.65l602.41 0c20.03,0 31.92,16.4 26.41,36.43l-22.22 80.84c-5.51,20.04 -26.41,36.43 -46.45,36.43l-602.41 0c-20.03,0 -31.92,-16.39 -26.41,-36.43l22.22 -80.84c5.51,-20.03 26.41,-36.43 46.45,-36.43z"/>
   <path id="_1" class="fil1" d="M678.09 11.31l-602.4 0 0.01 -11.31 602.4 0 0 0 -0.01 11.31zm31.9 32.26l-10.95 -2.97 0 0 0.4 -1.61 0.31 -1.57 0.22 -1.54 0.15 -1.5 0.06 -1.46 -0.02 -1.42 -0.09 -1.38 -0.16 -1.34 -0.23 -1.3 -0.3 -1.25 -0.36 -1.21 -0.43 -1.16 -0.49 -1.12 -0.55 -1.07 -0.61 -1.02 -0.66 -0.98 -0.72 -0.93 -0.77 -0.89 -0.83 -0.83 -0.89 -0.78 -0.94 -0.74 -0.99 -0.68 -1.05 -0.63 -1.11 -0.57 -1.16 -0.52 -1.22 -0.45 -1.28 -0.4 -1.33 -0.33 -1.39 -0.26 -1.44 -0.19 -1.51 -0.12 -1.56 -0.04 0.01 -11.31 2.15 0.05 2.11 0.17 2.06 0.27 2.01 0.38 1.96 0.49 1.91 0.59 1.84 0.69 1.79 0.8 1.71 0.89 1.65 0.98 1.57 1.08 1.49 1.17 1.42 1.25 1.33 1.33 1.24 1.42 1.15 1.48 1.05 1.56 0.97 1.62 0.86 1.69 0.76 1.74 0.66 1.79 0.55 1.84 0.46 1.89 0.34 1.93 0.24 1.97 0.13 2 0.02 2.02 -0.09 2.06 -0.19 2.08 -0.31 2.1 -0.42 2.11 -0.53 2.13 0 0zm-33.18 77.86l22.23 -80.83 10.95 2.97 -22.23 80.84 0 0 -10.95 -2.98zm-40.97 43.57l0.01 -11.3 0 0 1.59 -0.04 1.6 -0.13 1.62 -0.2 1.62 -0.27 1.62 -0.36 1.62 -0.43 1.62 -0.5 1.62 -0.58 1.6 -0.64 1.59 -0.72 1.57 -0.78 1.55 -0.85 1.53 -0.91 1.5 -0.97 1.47 -1.03 1.43 -1.08 1.4 -1.14 1.36 -1.19 1.31 -1.24 1.27 -1.28 1.21 -1.32 1.16 -1.37 1.11 -1.4 1.05 -1.44 0.98 -1.46 0.92 -1.5 0.86 -1.52 0.78 -1.55 0.72 -1.57 0.63 -1.58 0.57 -1.61 0.48 -1.61 10.95 2.98 -0.63 2.12 -0.74 2.08 -0.82 2.05 -0.92 2.01 -1 1.97 -1.08 1.93 -1.16 1.89 -1.23 1.83 -1.3 1.79 -1.37 1.74 -1.44 1.69 -1.5 1.63 -1.56 1.57 -1.61 1.52 -1.66 1.46 -1.72 1.4 -1.76 1.33 -1.81 1.27 -1.85 1.19 -1.89 1.13 -1.93 1.05 -1.96 0.98 -2 0.9 -2.02 0.82 -2.06 0.73 -2.07 0.65 -2.1 0.55 -2.12 0.46 -2.14 0.37 -2.15 0.27 -2.16 0.16 -2.16 0.05 0 0zm-602.4 -11.3l602.41 0 -0.01 11.3 -602.41 0 0 0 0.01 -11.3zm-31.89 -32.27l10.94 2.98 0 0 -0.4 1.6 -0.31 1.57 -0.22 1.54 -0.15 1.5 -0.06 1.46 0.02 1.42 0.09 1.38 0.16 1.34 0.23 1.3 0.3 1.25 0.37 1.21 0.42 1.16 0.49 1.12 0.55 1.07 0.61 1.03 0.66 0.97 0.72 0.93 0.77 0.89 0.83 0.83 0.89 0.78 0.94 0.74 0.99 0.68 1.06 0.63 1.1 0.57 1.16 0.52 1.22 0.46 1.28 0.39 1.33 0.33 1.39 0.27 1.45 0.19 1.5 0.12 1.56 0.04 -0.01 11.3 -2.15 -0.05 -2.11 -0.17 -2.06 -0.27 -2.01 -0.38 -1.96 -0.49 -1.9 -0.59 -1.85 -0.69 -1.78 -0.79 -1.72 -0.89 -1.65 -0.99 -1.57 -1.08 -1.49 -1.16 -1.42 -1.26 -1.32 -1.33 -1.25 -1.41 -1.15 -1.49 -1.05 -1.56 -0.96 -1.62 -0.87 -1.68 -0.76 -1.74 -0.66 -1.8 -0.55 -1.84 -0.45 -1.89 -0.35 -1.93 -0.24 -1.96 -0.13 -2 -0.02 -2.03 0.09 -2.06 0.2 -2.07 0.3 -2.1 0.42 -2.12 0.54 -2.13 0 0zm33.17 -77.86l-22.23 80.84 -10.94 -2.98 22.22 -80.83 0 0 10.95 2.97zm40.98 -43.57l-0.01 11.31 0 0 -1.6 0.04 -1.6 0.12 -1.62 0.2 -1.62 0.28 -1.62 0.35 -1.62 0.43 -1.62 0.5 -1.61 0.58 -1.61 0.65 -1.59 0.71 -1.57 0.78 -1.55 0.85 -1.53 0.91 -1.5 0.97 -1.47 1.03 -1.43 1.09 -1.4 1.13 -1.35 1.19 -1.32 1.24 -1.26 1.28 -1.22 1.33 -1.16 1.36 -1.11 1.4 -1.05 1.44 -0.98 1.47 -0.92 1.49 -0.86 1.53 -0.78 1.55 -0.71 1.56 -0.64 1.59 -0.57 1.6 -0.48 1.61 -10.95 -2.97 0.64 -2.12 0.73 -2.09 0.83 -2.05 0.91 -2.01 1 -1.97 1.08 -1.93 1.16 -1.88 1.23 -1.84 1.31 -1.79 1.37 -1.74 1.43 -1.68 1.5 -1.64 1.56 -1.57 1.61 -1.52 1.66 -1.46 1.72 -1.4 1.76 -1.33 1.81 -1.26 1.85 -1.2 1.89 -1.13 1.93 -1.05 1.97 -0.98 1.99 -0.9 2.03 -0.81 2.05 -0.74 2.08 -0.64 2.1 -0.56 2.11 -0.46 2.14 -0.37 2.15 -0.26 2.16 -0.17 2.17 -0.05 0 0z"/>
  </g>
  <path class="fil2 str0" d="M104.38 111.25l-9.46 -18.03c-0.94,-1.79 -1.83,-3.27 -2.72,-4.47 -0.87,-1.21 -1.78,-2.17 -2.71,-2.89 -0.92,-0.7 -1.93,-1.22 -2.99,-1.52 -1.07,-0.32 -2.26,-0.47 -3.57,-0.47l-6.91 0 0 27.38 -5.84 0 0 -62.83 18.09 0c2.36,0 4.65,0.34 6.86,1.05 2.2,0.7 4.16,1.73 5.88,3.11 1.72,1.37 3.12,3.1 4.15,5.16 1.03,2.08 1.55,4.49 1.55,7.23 0,2.21 -0.33,4.26 -1,6.13 -0.67,1.85 -1.63,3.51 -2.87,4.97 -1.24,1.43 -2.74,2.66 -4.5,3.66 -1.78,1.02 -3.77,1.77 -5.99,2.26l0 0.18c0.85,0.34 1.62,0.81 2.32,1.36 0.7,0.55 1.38,1.23 2.03,2.02 0.66,0.78 1.31,1.69 1.95,2.71 0.64,1.03 1.32,2.2 2,3.51l10.55 19.48 -6.82 0zm-28.36 -57.44l0 24.77 10.41 0c2.11,0 4.02,-0.3 5.77,-0.91 1.75,-0.62 3.25,-1.5 4.49,-2.64 1.24,-1.12 2.2,-2.5 2.89,-4.1 0.69,-1.6 1.03,-3.41 1.03,-5.41 0,-3.65 -1.17,-6.51 -3.52,-8.59 -2.34,-2.08 -5.74,-3.12 -10.18,-3.12l-10.89 0zm47.61 58.34c-1.16,0 -2.17,-0.41 -2.97,-1.23 -0.83,-0.81 -1.23,-1.81 -1.23,-2.98 0,-1.18 0.4,-2.19 1.2,-3 0.8,-0.83 1.81,-1.23 3,-1.23 0.59,0 1.12,0.11 1.63,0.33 0.51,0.22 0.96,0.51 1.34,0.87 0.38,0.37 0.68,0.81 0.92,1.33 0.23,0.54 0.35,1.11 0.35,1.7 0,0.59 -0.12,1.14 -0.35,1.65 -0.24,0.51 -0.54,0.96 -0.92,1.33 -0.38,0.37 -0.83,0.67 -1.34,0.9 -0.51,0.22 -1.04,0.33 -1.63,0.33zm58.1 -0.9l0 -29.35 -34.28 0 0 29.35 -5.84 0 0 -62.83 5.84 0 0 28.18 34.28 0 0 -28.18 5.84 0 0 62.83 -5.84 0zm34.17 8.17c-1.76,4.38 -3.77,7.63 -6.06,9.75 -2.27,2.11 -5.04,3.17 -8.27,3.17 -1.61,0 -2.96,-0.19 -4.08,-0.56l0 -5.26c0.64,0.24 1.3,0.41 1.94,0.53 0.66,0.12 1.33,0.18 1.99,0.18 1.84,0 3.44,-0.59 4.8,-1.74 1.35,-1.15 2.53,-2.9 3.52,-5.23l3.89 -9.22 -17.23 -44.67 6.22 0 12.83 35.55c0.18,0.47 0.35,1 0.51,1.6 0.17,0.59 0.32,1.19 0.47,1.78l0.21 0c0.15,-0.5 0.28,-1.01 0.41,-1.51 0.14,-0.51 0.32,-1.08 0.56,-1.7l13.63 -35.72 5.91 0 -21.25 53.05zm60.05 -8.17l0 -7.87 -0.18 0c-1.48,2.83 -3.62,5.04 -6.37,6.6 -2.77,1.57 -5.91,2.35 -9.41,2.35 -2.81,0 -5.36,-0.53 -7.66,-1.56 -2.29,-1.05 -4.27,-2.54 -5.9,-4.5 -1.63,-1.96 -2.9,-4.32 -3.79,-7.11 -0.89,-2.78 -1.34,-5.92 -1.34,-9.42 0,-3.64 0.5,-6.94 1.47,-9.95 0.99,-2.99 2.38,-5.56 4.17,-7.72 1.8,-2.15 3.97,-3.81 6.5,-5 2.52,-1.18 5.34,-1.78 8.43,-1.78 6.47,0 11.1,2.59 13.9,7.77l0.18 0 0 -28.23 5.65 0 0 66.42 -5.65 0zm0 -27.11c0,-1.96 -0.34,-3.8 -1.02,-5.49 -0.67,-1.69 -1.6,-3.17 -2.79,-4.42 -1.22,-1.26 -2.65,-2.26 -4.34,-3 -1.68,-0.73 -3.53,-1.09 -5.55,-1.09 -2.23,0 -4.28,0.43 -6.15,1.32 -1.87,0.88 -3.49,2.14 -4.82,3.8 -1.33,1.64 -2.36,3.66 -3.11,6.03 -0.75,2.36 -1.12,5.05 -1.12,8.07 0,2.83 0.34,5.38 1.01,7.63 0.68,2.26 1.64,4.16 2.88,5.7 1.24,1.56 2.72,2.74 4.45,3.56 1.73,0.83 3.66,1.23 5.75,1.23 2.29,0 4.35,-0.4 6.18,-1.23 1.82,-0.82 3.38,-1.94 4.65,-3.38 1.27,-1.43 2.26,-3.11 2.95,-5.04 0.69,-1.93 1.03,-3.99 1.03,-6.19l0 -7.5zm42.38 -12.01c-1.32,-0.97 -3.01,-1.45 -5.09,-1.45 -1.48,0 -2.79,0.28 -3.93,0.85 -1.15,0.57 -2.14,1.33 -3.01,2.31 -0.86,0.95 -1.58,2.08 -2.18,3.35 -0.62,1.27 -1.09,2.59 -1.45,3.96 -0.38,1.38 -0.63,2.77 -0.8,4.16 -0.16,1.41 -0.24,2.74 -0.24,3.99l0 21.95 -5.56 0 0 -44.88 5.56 0 0 9.62 0.18 0c0.53,-1.63 1.19,-3.11 1.99,-4.4 0.81,-1.3 1.74,-2.41 2.79,-3.29 1.04,-0.9 2.2,-1.57 3.44,-2.03 1.24,-0.47 2.54,-0.71 3.92,-0.71 0.91,0 1.72,0.06 2.44,0.18 0.7,0.11 1.36,0.29 1.94,0.53l0 5.86zm25.24 40.2c-3.32,0 -6.32,-0.56 -8.95,-1.66 -2.65,-1.12 -4.91,-2.7 -6.78,-4.73 -1.87,-2.03 -3.29,-4.46 -4.27,-7.3 -1.01,-2.84 -1.5,-5.98 -1.5,-9.44 0,-3.74 0.52,-7.09 1.57,-10.04 1.06,-2.96 2.56,-5.46 4.49,-7.52 1.94,-2.07 4.29,-3.64 7.03,-4.72 2.75,-1.09 5.82,-1.63 9.2,-1.63 3.25,0 6.16,0.54 8.75,1.61 2.6,1.06 4.8,2.61 6.61,4.62 1.81,2.02 3.2,4.49 4.16,7.37 0.97,2.91 1.45,6.2 1.45,9.88 0,3.51 -0.51,6.7 -1.51,9.58 -1,2.89 -2.44,5.36 -4.31,7.44 -1.87,2.08 -4.14,3.68 -6.83,4.83 -2.68,1.14 -5.72,1.71 -9.11,1.71zm0.45 -42.19c-2.47,0 -4.69,0.42 -6.68,1.27 -1.99,0.86 -3.69,2.08 -5.11,3.71 -1.42,1.62 -2.52,3.61 -3.28,5.97 -0.76,2.35 -1.14,5.03 -1.14,8.01 0,2.81 0.38,5.34 1.14,7.58 0.76,2.26 1.84,4.19 3.23,5.8 1.39,1.6 3.08,2.85 5.07,3.7 1.99,0.87 4.21,1.3 6.68,1.3 2.51,0 4.74,-0.42 6.67,-1.26 1.93,-0.82 3.56,-2.03 4.9,-3.63 1.35,-1.6 2.37,-3.55 3.06,-5.87 0.68,-2.3 1.03,-4.93 1.03,-7.89 0,-6.05 -1.35,-10.69 -4.04,-13.89 -2.69,-3.2 -6.54,-4.8 -11.53,-4.8zm33.62 41.11l0 -62.83 17.16 0c2.61,0 4.95,0.34 7.03,1.05 2.1,0.7 3.88,1.69 5.34,2.96 1.49,1.27 2.61,2.8 3.4,4.58 0.79,1.78 1.18,3.74 1.18,5.88 0,1.81 -0.25,3.5 -0.75,5.08 -0.49,1.57 -1.21,3.01 -2.14,4.31 -0.94,1.3 -2.07,2.44 -3.44,3.38 -1.36,0.96 -2.9,1.71 -4.62,2.26l0 0.18c2.11,0.19 4.04,0.7 5.78,1.53 1.72,0.82 3.21,1.88 4.44,3.2 1.23,1.31 2.18,2.85 2.86,4.62 0.67,1.77 1.01,3.69 1.01,5.8 0,2.65 -0.48,5.09 -1.45,7.29 -0.96,2.2 -2.32,4.1 -4.05,5.7 -1.74,1.58 -3.82,2.83 -6.21,3.69 -2.39,0.89 -5.04,1.32 -7.94,1.32l-17.6 0zm5.84 -57.44l0 22.26 8.15 0c2.13,0 4.06,-0.29 5.78,-0.84 1.73,-0.56 3.2,-1.35 4.42,-2.4 1.23,-1.04 2.17,-2.31 2.83,-3.81 0.66,-1.48 0.99,-3.16 0.99,-5.03 0,-6.79 -4.24,-10.18 -12.7,-10.18l-9.47 0zm0 27.55l0 24.59 10.83 0c4.65,0 8.23,-1.09 10.72,-3.26 2.5,-2.17 3.76,-5.25 3.76,-9.26 0,-8.04 -5.49,-12.07 -16.46,-12.07l-8.85 0zm61.68 30.97c-3.32,0 -6.32,-0.56 -8.95,-1.66 -2.65,-1.12 -4.91,-2.7 -6.78,-4.73 -1.87,-2.03 -3.29,-4.46 -4.27,-7.3 -1.01,-2.84 -1.5,-5.98 -1.5,-9.44 0,-3.74 0.52,-7.09 1.57,-10.04 1.06,-2.96 2.56,-5.46 4.49,-7.52 1.94,-2.07 4.29,-3.64 7.03,-4.72 2.75,-1.09 5.82,-1.63 9.2,-1.63 3.25,0 6.16,0.54 8.75,1.61 2.6,1.06 4.8,2.61 6.61,4.62 1.81,2.02 3.2,4.49 4.16,7.37 0.97,2.91 1.45,6.2 1.45,9.88 0,3.51 -0.51,6.7 -1.51,9.58 -1,2.89 -2.44,5.36 -4.31,7.44 -1.87,2.08 -4.14,3.68 -6.83,4.83 -2.68,1.14 -5.72,1.71 -9.11,1.71zm0.45 -42.19c-2.47,0 -4.69,0.42 -6.68,1.27 -1.99,0.86 -3.69,2.08 -5.11,3.71 -1.42,1.62 -2.52,3.61 -3.28,5.97 -0.76,2.35 -1.14,5.03 -1.14,8.01 0,2.81 0.38,5.34 1.14,7.58 0.76,2.26 1.84,4.19 3.23,5.8 1.39,1.6 3.08,2.85 5.07,3.7 1.99,0.87 4.21,1.3 6.68,1.3 2.51,0 4.74,-0.42 6.67,-1.26 1.93,-0.82 3.56,-2.03 4.9,-3.63 1.35,-1.6 2.37,-3.55 3.06,-5.87 0.68,-2.3 1.03,-4.93 1.03,-7.89 0,-6.05 -1.35,-10.69 -4.04,-13.89 -2.69,-3.2 -6.54,-4.8 -11.53,-4.8zm69.8 37.65c0,8.34 -1.9,14.52 -5.7,18.52 -3.8,4.03 -9.65,6.03 -17.57,6.03 -4.92,0 -9.59,-1.09 -13.98,-3.27l0 -5.7c4.89,2.69 9.54,4.04 13.97,4.04 11.74,0 17.62,-6.2 17.62,-18.57l0 -5.37 -0.18 0c-3.44,5.91 -8.7,8.86 -15.78,8.86 -2.78,0 -5.31,-0.51 -7.62,-1.54 -2.28,-1.02 -4.26,-2.5 -5.89,-4.43 -1.63,-1.93 -2.92,-4.28 -3.81,-7.05 -0.92,-2.75 -1.37,-5.88 -1.37,-9.36 0,-3.68 0.48,-7.03 1.46,-10.07 0.95,-3.02 2.33,-5.62 4.11,-7.78 1.79,-2.17 3.95,-3.84 6.48,-5.03 2.53,-1.18 5.37,-1.78 8.52,-1.78 6.35,0 10.98,2.58 13.9,7.72l0.18 0 0 -6.64 5.66 0 0 41.42zm-5.66 -23.83c0,-1.87 -0.34,-3.65 -1.02,-5.31 -0.67,-1.66 -1.6,-3.12 -2.79,-4.38 -1.22,-1.26 -2.64,-2.26 -4.3,-3.01 -1.64,-0.74 -3.47,-1.12 -5.46,-1.12 -2.35,0 -4.46,0.45 -6.35,1.36 -1.89,0.92 -3.49,2.2 -4.82,3.86 -1.35,1.66 -2.37,3.7 -3.08,6.08 -0.72,2.39 -1.08,5.07 -1.08,8.04 0,2.76 0.34,5.24 1.02,7.47 0.67,2.23 1.61,4.11 2.84,5.65 1.24,1.56 2.72,2.76 4.46,3.61 1.75,0.85 3.69,1.27 5.82,1.27 2.23,0 4.24,-0.4 6.07,-1.21 1.81,-0.79 3.37,-1.92 4.65,-3.34 1.29,-1.4 2.29,-3.08 2.99,-4.99 0.71,-1.92 1.05,-3.98 1.05,-6.21l0 -7.77zm38.39 28.37c-3.32,0 -6.32,-0.56 -8.95,-1.66 -2.65,-1.12 -4.9,-2.7 -6.77,-4.73 -1.88,-2.03 -3.3,-4.46 -4.28,-7.3 -1.01,-2.84 -1.5,-5.98 -1.5,-9.44 0,-3.74 0.52,-7.09 1.57,-10.04 1.06,-2.96 2.56,-5.46 4.49,-7.52 1.94,-2.07 4.29,-3.64 7.03,-4.72 2.75,-1.09 5.82,-1.63 9.2,-1.63 3.25,0 6.16,0.54 8.75,1.61 2.6,1.06 4.8,2.61 6.61,4.62 1.81,2.02 3.21,4.49 4.16,7.37 0.97,2.91 1.45,6.2 1.45,9.88 0,3.51 -0.51,6.7 -1.51,9.58 -1,2.89 -2.44,5.36 -4.31,7.44 -1.87,2.08 -4.14,3.68 -6.83,4.83 -2.68,1.14 -5.72,1.71 -9.11,1.71zm0.45 -42.19c-2.47,0 -4.69,0.42 -6.68,1.27 -1.99,0.86 -3.69,2.08 -5.11,3.71 -1.42,1.62 -2.51,3.61 -3.28,5.97 -0.76,2.35 -1.13,5.03 -1.13,8.01 0,2.81 0.37,5.34 1.13,7.58 0.77,2.26 1.84,4.19 3.23,5.8 1.39,1.6 3.08,2.85 5.07,3.7 1.99,0.87 4.21,1.3 6.68,1.3 2.51,0 4.74,-0.42 6.67,-1.26 1.93,-0.82 3.56,-2.03 4.91,-3.63 1.34,-1.6 2.36,-3.55 3.05,-5.87 0.69,-2.3 1.03,-4.93 1.03,-7.89 0,-6.05 -1.35,-10.69 -4.04,-13.89 -2.69,-3.2 -6.54,-4.8 -11.53,-4.8zm51.94 40.56c-1.93,0.97 -4.03,1.45 -6.3,1.45 -7.23,0 -10.85,-4.18 -10.85,-12.52l0 -28.32 -7.9 0 0 -4.94 7.9 0 0 -11.26 5.66 -1.84 0 13.1 11.49 0 0 4.94 -11.49 0 0 27.42c0,3.04 0.49,5.22 1.48,6.57 0.98,1.33 2.64,2 5.01,2 1.73,0 3.39,-0.52 5,-1.57l0 4.97zm35.17 0.55l0 -7.99 -0.18 0c-1.46,2.87 -3.46,5.1 -5.99,6.69 -2.53,1.58 -5.38,2.38 -8.57,2.38 -2.17,0 -4.11,-0.32 -5.85,-0.93 -1.75,-0.61 -3.22,-1.48 -4.43,-2.6 -1.22,-1.14 -2.15,-2.49 -2.81,-4.07 -0.66,-1.59 -0.99,-3.32 -0.99,-5.24 0,-4.07 1.26,-7.31 3.77,-9.72 2.52,-2.42 6.32,-4 11.4,-4.73l13.65 -1.97c0,-8.62 -3.36,-12.93 -10.07,-12.93 -5.25,0 -10.13,1.92 -14.62,5.75l0 -6.14c0.94,-0.66 2.01,-1.27 3.19,-1.81 1.2,-0.54 2.45,-1 3.77,-1.4 1.31,-0.39 2.68,-0.69 4.07,-0.92 1.4,-0.22 2.75,-0.33 4.08,-0.33 5.01,0 8.81,1.41 11.37,4.21 2.57,2.81 3.86,6.98 3.86,12.55l0 29.2 -5.65 0zm-11.6 -21.8c-2.03,0.29 -3.75,0.65 -5.19,1.1 -1.44,0.43 -2.62,1.03 -3.56,1.78 -0.94,0.74 -1.63,1.66 -2.06,2.75 -0.44,1.11 -0.66,2.45 -0.66,4.07 0,1.19 0.21,2.3 0.64,3.33 0.42,1.02 1.03,1.9 1.84,2.65 0.81,0.75 1.78,1.33 2.95,1.74 1.15,0.4 2.47,0.61 3.93,0.61 1.99,0 3.82,-0.37 5.49,-1.14 1.66,-0.76 3.11,-1.82 4.33,-3.15 1.21,-1.35 2.16,-2.97 2.85,-4.84 0.69,-1.86 1.04,-3.9 1.04,-6.1l0 -4.43 -11.6 1.63z"/>
 </g>
</svg>
