<?xml version="1.0" encoding="UTF-8"?>
<!DOCTYPE svg PUBLIC "-//W3C//DTD SVG 1.1//EN" "http://www.w3.org/Graphics/SVG/1.1/DTD/svg11.dtd">
<!-- Creator: CorelDRAW -->
<svg xmlns="http://www.w3.org/2000/svg" xml:space="preserve" width="1165px" height="271px" version="1.1" style="shape-rendering:geometricPrecision; text-rendering:geometricPrecision; image-rendering:optimizeQuality; fill-rule:evenodd; clip-rule:evenodd"
viewBox="0 0 736.61 171.44"
 xmlns:xlink="http://www.w3.org/1999/xlink"
 xmlns:xodm="http://www.corel.com/coreldraw/odm/2003">
 <defs>
  <style type="text/css">
   <![CDATA[
    .fil0 {fill:white}
    .fil2 {fill:black;fill-rule:nonzero}
    .fil1 {fill:black;fill-rule:nonzero}
   ]]>
  </style>
 </defs>
 <g id="Capa_x0020_1">
  <metadata id="CorelCorpID_0Corel-Layer"/>
  <g>
   <path class="fil0" d="M77.31 5.87l625.9 0c20.82,0 33.17,17.04 27.44,37.86l-23.09 83.98c-5.72,20.82 -27.44,37.85 -48.25,37.85l-625.9 0c-20.82,0 -33.17,-17.03 -27.45,-37.85l23.09 -83.98c5.73,-20.82 27.44,-37.86 48.26,-37.86z"/>
   <path id="_1" class="fil1" d="M703.2 11.75l-625.9 0 0.02 -11.75 625.9 0 0 0 -0.02 11.75zm31.76 33.93l-8.61 -3.91 0 0 0.4 -1.6 0.31 -1.57 0.22 -1.52 0.14 -1.47 0.07 -1.43 -0.02 -1.39 -0.09 -1.34 -0.15 -1.3 -0.23 -1.27 -0.3 -1.23 -0.35 -1.19 -0.43 -1.15 -0.49 -1.13 -0.56 -1.09 -0.63 -1.06 -0.69 -1.03 -0.77 -0.99 -0.83 -0.95 -0.91 -0.9 -0.97 -0.86 -1.04 -0.82 -1.12 -0.76 -1.18 -0.71 -1.25 -0.65 -1.31 -0.58 -1.38 -0.52 -1.45 -0.45 -1.51 -0.37 -1.57 -0.3 -1.63 -0.21 -1.68 -0.14 -1.75 -0.04 0.02 -11.75 2.11 0.05 2.06 0.17 2.02 0.26 1.96 0.37 1.91 0.48 1.86 0.58 1.81 0.67 1.74 0.78 1.68 0.87 1.62 0.97 1.56 1.07 1.48 1.16 1.42 1.25 1.34 1.35 1.26 1.43 1.18 1.52 1.09 1.61 1 1.69 0.9 1.77 0.81 1.85 0.71 1.91 0.59 1.98 0.49 2.03 0.37 2.09 0.26 2.13 0.14 2.17 0.02 2.2 -0.09 2.23 -0.21 2.24 -0.34 2.26 -0.45 2.27 -0.56 2.27 0 0zm-31.7 80.08l23.09 -83.99 8.61 3.91 -23.09 83.98 0 0 -8.61 -3.9zm-43.96 45.68l0.01 -11.75 0 0 1.78 -0.05 1.78 -0.13 1.79 -0.22 1.78 -0.31 1.79 -0.39 1.78 -0.47 1.77 -0.55 1.75 -0.63 1.75 -0.7 1.72 -0.77 1.7 -0.85 1.67 -0.91 1.64 -0.98 1.61 -1.04 1.57 -1.1 1.53 -1.16 1.49 -1.21 1.44 -1.26 1.39 -1.32 1.34 -1.35 1.29 -1.4 1.22 -1.43 1.16 -1.47 1.09 -1.51 1.03 -1.53 0.96 -1.55 0.88 -1.58 0.81 -1.59 0.73 -1.61 0.65 -1.61 0.57 -1.62 0.49 -1.63 8.61 3.9 -0.68 2.26 -0.78 2.21 -0.87 2.16 -0.96 2.11 -1.04 2.06 -1.13 2.01 -1.21 1.96 -1.27 1.91 -1.35 1.84 -1.41 1.8 -1.48 1.73 -1.54 1.68 -1.59 1.61 -1.65 1.55 -1.7 1.49 -1.74 1.42 -1.79 1.35 -1.84 1.29 -1.87 1.21 -1.91 1.14 -1.94 1.06 -1.98 0.98 -2 0.9 -2.03 0.82 -2.05 0.73 -2.07 0.65 -2.09 0.55 -2.1 0.46 -2.12 0.36 -2.12 0.26 -2.13 0.16 -2.13 0.06 0 0zm-625.89 -11.75l625.9 0 -0.01 11.75 -625.9 0 0 0 0.01 -11.75zm-31.75 -33.93l8.6 3.9 0 0 -0.4 1.61 -0.31 1.56 -0.22 1.52 -0.14 1.48 -0.06 1.43 0.01 1.38 0.09 1.35 0.16 1.3 0.23 1.26 0.29 1.23 0.36 1.19 0.43 1.16 0.49 1.13 0.56 1.09 0.63 1.06 0.69 1.02 0.76 0.99 0.84 0.95 0.9 0.91 0.98 0.86 1.04 0.82 1.11 0.76 1.18 0.71 1.25 0.64 1.32 0.59 1.38 0.52 1.44 0.45 1.51 0.37 1.57 0.3 1.63 0.21 1.69 0.13 1.74 0.05 -0.01 11.75 -2.11 -0.06 -2.07 -0.16 -2.01 -0.27 -1.96 -0.37 -1.92 -0.47 -1.86 -0.58 -1.8 -0.68 -1.74 -0.77 -1.69 -0.87 -1.62 -0.97 -1.55 -1.07 -1.49 -1.16 -1.41 -1.25 -1.34 -1.35 -1.26 -1.43 -1.18 -1.53 -1.09 -1.6 -1 -1.69 -0.91 -1.77 -0.81 -1.85 -0.7 -1.91 -0.6 -1.98 -0.48 -2.04 -0.38 -2.08 -0.25 -2.13 -0.15 -2.17 -0.02 -2.2 0.1 -2.23 0.21 -2.24 0.33 -2.26 0.45 -2.27 0.57 -2.27 0 0zm31.7 -80.08l-23.1 83.98 -8.6 -3.9 23.09 -83.99 0 0 8.61 3.91zm43.96 -45.68l-0.02 11.75 0 0 -1.77 0.04 -1.78 0.14 -1.79 0.22 -1.79 0.3 -1.78 0.39 -1.78 0.48 -1.77 0.55 -1.76 0.62 -1.74 0.71 -1.72 0.77 -1.7 0.85 -1.67 0.91 -1.64 0.98 -1.61 1.04 -1.57 1.1 -1.54 1.16 -1.49 1.21 -1.44 1.26 -1.39 1.31 -1.34 1.36 -1.28 1.4 -1.22 1.43 -1.16 1.47 -1.1 1.51 -1.03 1.53 -0.95 1.55 -0.89 1.57 -0.8 1.6 -0.73 1.6 -0.65 1.62 -0.58 1.62 -0.48 1.63 -8.61 -3.91 0.68 -2.25 0.77 -2.21 0.87 -2.16 0.96 -2.11 1.05 -2.06 1.13 -2.02 1.2 -1.95 1.28 -1.91 1.35 -1.85 1.41 -1.79 1.48 -1.73 1.53 -1.68 1.6 -1.61 1.64 -1.55 1.7 -1.49 1.75 -1.42 1.79 -1.35 1.83 -1.29 1.88 -1.21 1.91 -1.14 1.94 -1.06 1.97 -0.98 2.01 -0.9 2.02 -0.82 2.05 -0.73 2.08 -0.65 2.08 -0.55 2.11 -0.46 2.11 -0.36 2.13 -0.27 2.12 -0.16 2.14 -0.05 0 0z"/>
  </g>
  <path class="fil2" d="M107.12 115.59l-9.83 -18.73c-0.97,-1.87 -1.91,-3.4 -2.83,-4.65 -0.9,-1.26 -1.84,-2.25 -2.81,-3 -0.96,-0.73 -2,-1.27 -3.11,-1.58 -1.12,-0.33 -2.34,-0.48 -3.71,-0.48l-7.18 0 0 28.44 -6.06 0 0 -65.28 18.79 0c2.45,0 4.83,0.36 7.13,1.09 2.29,0.73 4.32,1.8 6.11,3.23 1.79,1.43 3.23,3.22 4.31,5.36 1.07,2.16 1.61,4.66 1.61,7.51 0,2.3 -0.34,4.43 -1.04,6.37 -0.7,1.93 -1.69,3.65 -2.98,5.16 -1.29,1.49 -2.85,2.77 -4.68,3.81 -1.85,1.06 -3.92,1.83 -6.22,2.35l0 0.18c0.89,0.36 1.68,0.84 2.41,1.42 0.73,0.57 1.43,1.27 2.11,2.1 0.69,0.8 1.36,1.75 2.02,2.81 0.67,1.07 1.37,2.28 2.09,3.65l10.95 20.24 -7.08 0zm-29.47 -59.69l0 25.74 10.82 0c2.19,0 4.18,-0.31 5.99,-0.95 1.82,-0.63 3.38,-1.55 4.67,-2.73 1.29,-1.17 2.28,-2.6 3,-4.26 0.71,-1.66 1.07,-3.54 1.07,-5.63 0,-3.79 -1.21,-6.76 -3.65,-8.92 -2.44,-2.16 -5.97,-3.25 -10.59,-3.25l-11.31 0zm49.47 60.62c-1.21,0 -2.25,-0.42 -3.09,-1.27 -0.86,-0.84 -1.28,-1.88 -1.28,-3.1 0,-1.22 0.42,-2.28 1.25,-3.12 0.84,-0.85 1.88,-1.27 3.12,-1.27 0.61,0 1.17,0.1 1.7,0.34 0.52,0.23 0.99,0.53 1.38,0.9 0.4,0.39 0.71,0.84 0.96,1.38 0.24,0.56 0.36,1.15 0.36,1.77 0,0.61 -0.12,1.19 -0.36,1.71 -0.25,0.53 -0.56,1 -0.96,1.39 -0.39,0.39 -0.86,0.7 -1.38,0.93 -0.53,0.23 -1.09,0.34 -1.7,0.34zm60.37 -0.93l0 -30.5 -35.63 0 0 30.5 -6.06 0 0 -65.28 6.06 0 0 29.28 35.63 0 0 -29.28 6.06 0 0 65.28 -6.06 0zm35.5 8.49c-1.83,4.55 -3.92,7.92 -6.3,10.13 -2.36,2.19 -5.23,3.29 -8.59,3.29 -1.68,0 -3.08,-0.2 -4.24,-0.59l0 -5.45c0.66,0.25 1.35,0.42 2.02,0.54 0.68,0.13 1.38,0.19 2.06,0.19 1.92,0 3.58,-0.61 4.99,-1.8 1.4,-1.2 2.63,-3.02 3.66,-5.44l4.04 -9.58 -17.91 -46.41 6.47 0 13.33 36.93c0.19,0.5 0.36,1.04 0.53,1.66 0.17,0.63 0.33,1.25 0.48,1.85l0.22 0c0.16,-0.51 0.3,-1.04 0.44,-1.57 0.14,-0.53 0.32,-1.12 0.57,-1.75l14.16 -37.12 6.14 0 -22.07 55.12zm62.39 -8.49l0 -8.18 -0.19 0c-1.54,2.94 -3.76,5.24 -6.62,6.86 -2.88,1.63 -6.14,2.44 -9.78,2.44 -2.92,0 -5.56,-0.55 -7.95,-1.62 -2.38,-1.09 -4.43,-2.64 -6.13,-4.68 -1.69,-2.03 -3.01,-4.49 -3.95,-7.38 -0.91,-2.89 -1.38,-6.15 -1.38,-9.79 0,-3.78 0.51,-7.21 1.52,-10.34 1.03,-3.11 2.48,-5.78 4.34,-8.02 1.87,-2.24 4.12,-3.96 6.75,-5.19 2.62,-1.23 5.55,-1.85 8.76,-1.85 6.72,0 11.54,2.69 14.44,8.07l0.19 0 0 -29.33 5.87 0 0 69.01 -5.87 0zm0 -28.16c0,-2.04 -0.36,-3.95 -1.06,-5.71 -0.7,-1.76 -1.66,-3.29 -2.9,-4.6 -1.26,-1.31 -2.76,-2.35 -4.51,-3.11 -1.74,-0.76 -3.67,-1.13 -5.77,-1.13 -2.31,0 -4.44,0.45 -6.39,1.36 -1.94,0.92 -3.62,2.23 -5,3.95 -1.39,1.71 -2.46,3.81 -3.23,6.27 -0.78,2.45 -1.17,5.25 -1.17,8.39 0,2.94 0.36,5.58 1.06,7.93 0.7,2.34 1.69,4.32 2.98,5.92 1.29,1.61 2.83,2.84 4.63,3.7 1.79,0.85 3.8,1.27 5.97,1.27 2.38,0 4.52,-0.42 6.42,-1.27 1.9,-0.86 3.51,-2.02 4.83,-3.51 1.33,-1.5 2.35,-3.24 3.07,-5.24 0.71,-2.01 1.07,-4.15 1.07,-6.44l0 -7.78zm44.03 -12.49c-1.37,-1.01 -3.12,-1.5 -5.28,-1.5 -1.54,0 -2.91,0.29 -4.09,0.88 -1.2,0.59 -2.22,1.39 -3.12,2.4 -0.91,0.99 -1.65,2.16 -2.27,3.48 -0.64,1.32 -1.14,2.69 -1.51,4.12 -0.39,1.43 -0.65,2.87 -0.83,4.32 -0.17,1.46 -0.24,2.84 -0.24,4.15l0 22.8 -5.79 0 0 -46.63 5.79 0 0 9.99 0.18 0c0.55,-1.69 1.23,-3.23 2.07,-4.57 0.84,-1.35 1.8,-2.5 2.89,-3.42 1.09,-0.93 2.29,-1.63 3.58,-2.11 1.29,-0.48 2.64,-0.73 4.07,-0.73 0.95,0 1.79,0.06 2.53,0.19 0.73,0.11 1.42,0.29 2.02,0.54l0 6.09zm26.22 41.77c-3.45,0 -6.56,-0.58 -9.29,-1.73 -2.75,-1.16 -5.1,-2.8 -7.04,-4.91 -1.95,-2.11 -3.42,-4.63 -4.45,-7.58 -1.04,-2.96 -1.55,-6.22 -1.55,-9.81 0,-3.89 0.54,-7.37 1.63,-10.43 1.1,-3.08 2.66,-5.67 4.66,-7.82 2.02,-2.14 4.46,-3.78 7.31,-4.9 2.86,-1.13 6.04,-1.69 9.56,-1.69 3.37,0 6.4,0.56 9.09,1.66 2.7,1.11 4.99,2.72 6.87,4.81 1.88,2.1 3.32,4.66 4.32,7.66 1.01,3.02 1.51,6.43 1.51,10.26 0,3.65 -0.53,6.96 -1.57,9.96 -1.04,3 -2.54,5.57 -4.48,7.73 -1.94,2.16 -4.3,3.82 -7.1,5.02 -2.78,1.18 -5.94,1.77 -9.47,1.77zm0.47 -43.83c-2.57,0 -4.87,0.43 -6.93,1.32 -2.07,0.88 -3.84,2.16 -5.32,3.85 -1.48,1.68 -2.61,3.75 -3.4,6.2 -0.8,2.44 -1.18,5.23 -1.18,8.32 0,2.92 0.38,5.55 1.18,7.88 0.79,2.35 1.91,4.35 3.35,6.03 1.45,1.66 3.21,2.95 5.27,3.84 2.07,0.9 4.37,1.35 6.94,1.35 2.61,0 4.92,-0.43 6.93,-1.3 2,-0.86 3.7,-2.12 5.1,-3.78 1.39,-1.66 2.45,-3.68 3.17,-6.09 0.71,-2.4 1.07,-5.13 1.07,-8.21 0,-6.28 -1.4,-11.1 -4.2,-14.42 -2.8,-3.33 -6.79,-4.99 -11.98,-4.99zm34.94 42.71l0 -65.28 17.83 0c2.7,0 5.14,0.36 7.3,1.09 2.18,0.73 4.03,1.75 5.55,3.07 1.54,1.33 2.71,2.91 3.53,4.76 0.82,1.85 1.23,3.89 1.23,6.11 0,1.88 -0.27,3.64 -0.78,5.28 -0.51,1.64 -1.26,3.13 -2.22,4.48 -0.98,1.35 -2.16,2.53 -3.58,3.51 -1.41,1 -3.01,1.77 -4.8,2.35l0 0.19c2.19,0.2 4.2,0.73 6,1.58 1.79,0.86 3.34,1.96 4.62,3.33 1.27,1.37 2.26,2.97 2.96,4.8 0.7,1.83 1.06,3.84 1.06,6.03 0,2.75 -0.5,5.29 -1.51,7.57 -0.99,2.29 -2.41,4.26 -4.21,5.92 -1.8,1.65 -3.96,2.94 -6.45,3.84 -2.49,0.92 -5.24,1.37 -8.25,1.37l-18.28 0zm6.06 -59.69l0 23.13 8.47 0c2.21,0 4.21,-0.29 6,-0.87 1.8,-0.57 3.33,-1.4 4.6,-2.49 1.28,-1.08 2.26,-2.4 2.94,-3.96 0.68,-1.54 1.03,-3.28 1.03,-5.22 0,-7.06 -4.4,-10.59 -13.2,-10.59l-9.84 0zm0 28.63l0 25.56 11.25 0c4.84,0 8.55,-1.14 11.15,-3.39 2.59,-2.26 3.9,-5.46 3.9,-9.62 0,-8.36 -5.7,-12.55 -17.1,-12.55l-9.2 0zm64.08 32.18c-3.45,0 -6.55,-0.58 -9.29,-1.73 -2.75,-1.16 -5.1,-2.8 -7.04,-4.91 -1.94,-2.11 -3.42,-4.63 -4.45,-7.58 -1.04,-2.96 -1.55,-6.22 -1.55,-9.81 0,-3.89 0.54,-7.37 1.63,-10.43 1.1,-3.08 2.66,-5.67 4.66,-7.82 2.02,-2.14 4.46,-3.78 7.31,-4.9 2.86,-1.13 6.05,-1.69 9.56,-1.69 3.37,0 6.4,0.56 9.09,1.66 2.7,1.11 4.99,2.72 6.87,4.81 1.88,2.1 3.33,4.66 4.32,7.66 1.01,3.02 1.51,6.43 1.51,10.26 0,3.65 -0.53,6.96 -1.57,9.96 -1.04,3 -2.53,5.57 -4.48,7.73 -1.94,2.16 -4.3,3.82 -7.1,5.02 -2.78,1.18 -5.94,1.77 -9.47,1.77zm0.47 -43.83c-2.56,0 -4.86,0.43 -6.93,1.32 -2.07,0.88 -3.84,2.16 -5.32,3.85 -1.47,1.68 -2.61,3.75 -3.4,6.2 -0.79,2.44 -1.18,5.23 -1.18,8.32 0,2.92 0.39,5.55 1.18,7.88 0.79,2.35 1.91,4.35 3.36,6.03 1.44,1.66 3.2,2.95 5.27,3.84 2.06,0.9 4.36,1.35 6.93,1.35 2.61,0 4.92,-0.43 6.93,-1.3 2,-0.86 3.7,-2.12 5.1,-3.78 1.4,-1.66 2.45,-3.68 3.17,-6.09 0.71,-2.4 1.07,-5.13 1.07,-8.21 0,-6.28 -1.4,-11.1 -4.2,-14.42 -2.79,-3.33 -6.79,-4.99 -11.98,-4.99zm72.52 39.12c0,8.66 -1.97,15.08 -5.92,19.24 -3.95,4.18 -10.02,6.26 -18.25,6.26 -5.11,0 -9.96,-1.13 -14.53,-3.4l0 -5.92c5.08,2.8 9.92,4.2 14.52,4.2 12.2,0 18.31,-6.44 18.31,-19.29l0 -5.58 -0.19 0c-3.57,6.14 -9.04,9.2 -16.4,9.2 -2.89,0 -5.51,-0.53 -7.91,-1.6 -2.38,-1.06 -4.43,-2.6 -6.12,-4.6 -1.7,-2.01 -3.03,-4.45 -3.96,-7.32 -0.95,-2.86 -1.42,-6.11 -1.42,-9.73 0,-3.83 0.5,-7.31 1.51,-10.46 0.99,-3.14 2.42,-5.85 4.27,-8.09 1.87,-2.25 4.11,-3.99 6.73,-5.22 2.63,-1.23 5.58,-1.85 8.86,-1.85 6.59,0 11.41,2.67 14.44,8.02l0.19 0 0 -6.9 5.87 0 0 43.04zm-5.87 -24.76c0,-1.94 -0.36,-3.79 -1.06,-5.52 -0.7,-1.72 -1.66,-3.25 -2.91,-4.55 -1.25,-1.31 -2.73,-2.35 -4.46,-3.13 -1.71,-0.77 -3.6,-1.16 -5.67,-1.16 -2.44,0 -4.63,0.46 -6.6,1.41 -1.96,0.95 -3.63,2.29 -5.01,4.01 -1.4,1.73 -2.46,3.84 -3.2,6.31 -0.75,2.49 -1.12,5.27 -1.12,8.36 0,2.86 0.36,5.44 1.06,7.76 0.7,2.32 1.67,4.27 2.95,5.88 1.29,1.61 2.83,2.85 4.63,3.74 1.82,0.89 3.84,1.32 6.05,1.32 2.31,0 4.41,-0.42 6.31,-1.26 1.88,-0.82 3.49,-1.99 4.83,-3.46 1.34,-1.46 2.38,-3.2 3.11,-5.19 0.73,-1.99 1.09,-4.14 1.09,-6.45l0 -8.07zm39.88 29.47c-3.45,0 -6.56,-0.58 -9.29,-1.73 -2.75,-1.16 -5.1,-2.8 -7.04,-4.91 -1.95,-2.11 -3.42,-4.63 -4.45,-7.58 -1.04,-2.96 -1.55,-6.22 -1.55,-9.81 0,-3.89 0.54,-7.37 1.63,-10.43 1.1,-3.08 2.66,-5.67 4.66,-7.82 2.02,-2.14 4.46,-3.78 7.31,-4.9 2.86,-1.13 6.04,-1.69 9.56,-1.69 3.37,0 6.4,0.56 9.09,1.66 2.7,1.11 4.99,2.72 6.87,4.81 1.88,2.1 3.32,4.66 4.32,7.66 1.01,3.02 1.51,6.43 1.51,10.26 0,3.65 -0.53,6.96 -1.57,9.96 -1.04,3 -2.54,5.57 -4.48,7.73 -1.94,2.16 -4.3,3.82 -7.1,5.02 -2.78,1.18 -5.94,1.77 -9.47,1.77zm0.47 -43.83c-2.57,0 -4.87,0.43 -6.93,1.32 -2.07,0.88 -3.84,2.16 -5.32,3.85 -1.48,1.68 -2.61,3.75 -3.4,6.2 -0.8,2.44 -1.19,5.23 -1.19,8.32 0,2.92 0.39,5.55 1.19,7.88 0.79,2.35 1.91,4.35 3.35,6.03 1.45,1.66 3.2,2.95 5.27,3.84 2.07,0.9 4.37,1.35 6.93,1.35 2.62,0 4.93,-0.43 6.94,-1.3 2,-0.86 3.7,-2.12 5.09,-3.78 1.4,-1.66 2.46,-3.68 3.18,-6.09 0.71,-2.4 1.07,-5.13 1.07,-8.21 0,-6.28 -1.4,-11.1 -4.2,-14.42 -2.8,-3.33 -6.79,-4.99 -11.98,-4.99zm53.96 42.13c-2,1.01 -4.18,1.51 -6.54,1.51 -7.51,0 -11.27,-4.34 -11.27,-13.01l0 -29.42 -8.21 0 0 -5.13 8.21 0 0 -11.7 5.88 -1.92 0 13.62 11.93 0 0 5.13 -11.93 0 0 28.49c0,3.15 0.51,5.42 1.53,6.82 1.03,1.39 2.75,2.09 5.21,2.09 1.8,0 3.53,-0.55 5.19,-1.64l0 5.16zm36.54 0.58l0 -8.3 -0.18 0c-1.51,2.98 -3.59,5.3 -6.22,6.95 -2.63,1.64 -5.6,2.47 -8.91,2.47 -2.25,0 -4.27,-0.33 -6.07,-0.97 -1.82,-0.63 -3.34,-1.53 -4.6,-2.7 -1.28,-1.18 -2.24,-2.58 -2.93,-4.23 -0.68,-1.64 -1.02,-3.45 -1.02,-5.44 0,-4.23 1.3,-7.6 3.92,-10.1 2.61,-2.52 6.55,-4.15 11.84,-4.91l14.17 -2.05c0,-8.96 -3.48,-13.43 -10.46,-13.43 -5.45,0 -10.52,1.99 -15.18,5.97l0 -6.38c0.98,-0.68 2.08,-1.32 3.31,-1.88 1.24,-0.56 2.55,-1.04 3.92,-1.46 1.36,-0.4 2.78,-0.71 4.22,-0.95 1.46,-0.23 2.86,-0.34 4.25,-0.34 5.2,0 9.15,1.46 11.81,4.37 2.67,2.92 4.01,7.26 4.01,13.04l0 30.34 -5.88 0zm-12.04 -22.65c-2.12,0.3 -3.9,0.67 -5.4,1.14 -1.49,0.45 -2.72,1.07 -3.69,1.85 -0.98,0.77 -1.7,1.72 -2.15,2.86 -0.45,1.15 -0.68,2.55 -0.68,4.23 0,1.24 0.21,2.39 0.67,3.46 0.43,1.06 1.07,1.97 1.91,2.75 0.84,0.78 1.85,1.39 3.06,1.81 1.2,0.41 2.56,0.63 4.09,0.63 2.06,0 3.96,-0.39 5.7,-1.18 1.73,-0.79 3.23,-1.9 4.49,-3.28 1.26,-1.4 2.26,-3.08 2.97,-5.02 0.72,-1.94 1.07,-4.06 1.07,-6.34l0 -4.6 -12.04 1.69z"/>
 </g>
</svg>
