<?xml version="1.0" encoding="UTF-8"?>
<!DOCTYPE svg PUBLIC "-//W3C//DTD SVG 1.1//EN" "http://www.w3.org/Graphics/SVG/1.1/DTD/svg11.dtd">
<!-- Creator: CorelDRAW -->
<svg xmlns="http://www.w3.org/2000/svg" xml:space="preserve" width="1165px" height="271px" version="1.1" style="shape-rendering:geometricPrecision; text-rendering:geometricPrecision; image-rendering:optimizeQuality; fill-rule:evenodd; clip-rule:evenodd"
viewBox="0 0 736.61 171.44"
 xmlns:xlink="http://www.w3.org/1999/xlink"
 xmlns:xodm="http://www.corel.com/coreldraw/odm/2003">
 <defs>
  <style type="text/css">
   <![CDATA[
    .fil0 {fill:#F0F0F0}
    .fil2 {fill:black;fill-rule:nonzero}
    .fil1 {fill:black;fill-rule:nonzero}
   ]]>
  </style>
 </defs>
 <g id="Capa_x0020_1">
  <metadata id="CorelCorpID_0Corel-Layer"/>
  <g>
   <path class="fil0" d="M77.31 5.87l625.9 0c20.82,0 33.17,17.04 27.44,37.86l-23.09 83.98c-5.72,20.82 -27.44,37.85 -48.25,37.85l-625.9 0c-20.82,0 -33.17,-17.03 -27.45,-37.85l23.09 -83.98c5.73,-20.82 27.44,-37.86 48.26,-37.86z"/>
   <path id="_1" class="fil1" d="M703.2 11.75l-625.9 0 0.02 -11.75 625.9 0 0 0 -0.02 11.75zm31.76 33.93l-8.61 -3.91 0 0 0.4 -1.6 0.31 -1.57 0.22 -1.52 0.14 -1.47 0.07 -1.43 -0.02 -1.39 -0.09 -1.34 -0.15 -1.3 -0.23 -1.27 -0.3 -1.23 -0.35 -1.19 -0.43 -1.15 -0.49 -1.13 -0.56 -1.09 -0.63 -1.06 -0.69 -1.03 -0.77 -0.99 -0.83 -0.95 -0.91 -0.9 -0.97 -0.86 -1.04 -0.82 -1.12 -0.76 -1.18 -0.71 -1.25 -0.65 -1.31 -0.58 -1.38 -0.52 -1.45 -0.45 -1.51 -0.37 -1.57 -0.3 -1.63 -0.21 -1.68 -0.14 -1.75 -0.04 0.02 -11.75 2.11 0.05 2.06 0.17 2.02 0.26 1.96 0.37 1.91 0.48 1.86 0.58 1.81 0.67 1.74 0.78 1.68 0.87 1.62 0.97 1.56 1.07 1.48 1.16 1.42 1.25 1.34 1.35 1.26 1.43 1.18 1.52 1.09 1.61 1 1.69 0.9 1.77 0.81 1.85 0.71 1.91 0.59 1.98 0.49 2.03 0.37 2.09 0.26 2.13 0.14 2.17 0.02 2.2 -0.09 2.23 -0.21 2.24 -0.34 2.26 -0.45 2.27 -0.56 2.27 0 0zm-31.7 80.08l23.09 -83.99 8.61 3.91 -23.09 83.98 0 0 -8.61 -3.9zm-43.96 45.68l0.01 -11.75 0 0 1.78 -0.05 1.78 -0.13 1.79 -0.22 1.78 -0.31 1.79 -0.39 1.78 -0.47 1.77 -0.55 1.75 -0.63 1.75 -0.7 1.72 -0.77 1.7 -0.85 1.67 -0.91 1.64 -0.98 1.61 -1.04 1.57 -1.1 1.53 -1.16 1.49 -1.21 1.44 -1.26 1.39 -1.32 1.34 -1.35 1.29 -1.4 1.22 -1.43 1.16 -1.47 1.09 -1.51 1.03 -1.53 0.96 -1.55 0.88 -1.58 0.81 -1.59 0.73 -1.61 0.65 -1.61 0.57 -1.62 0.49 -1.63 8.61 3.9 -0.68 2.26 -0.78 2.21 -0.87 2.16 -0.96 2.11 -1.04 2.06 -1.13 2.01 -1.21 1.96 -1.27 1.91 -1.35 1.84 -1.41 1.8 -1.48 1.73 -1.54 1.68 -1.59 1.61 -1.65 1.55 -1.7 1.49 -1.74 1.42 -1.79 1.35 -1.84 1.29 -1.87 1.21 -1.91 1.14 -1.94 1.06 -1.98 0.98 -2 0.9 -2.03 0.82 -2.05 0.73 -2.07 0.65 -2.09 0.55 -2.1 0.46 -2.12 0.36 -2.12 0.26 -2.13 0.16 -2.13 0.06 0 0zm-625.89 -11.75l625.9 0 -0.01 11.75 -625.9 0 0 0 0.01 -11.75zm-31.75 -33.93l8.6 3.9 0 0 -0.4 1.61 -0.31 1.56 -0.22 1.52 -0.14 1.48 -0.06 1.43 0.01 1.38 0.09 1.35 0.16 1.3 0.23 1.26 0.29 1.23 0.36 1.19 0.43 1.16 0.49 1.13 0.56 1.09 0.63 1.06 0.69 1.02 0.76 0.99 0.84 0.95 0.9 0.91 0.98 0.86 1.04 0.82 1.11 0.76 1.18 0.71 1.25 0.64 1.32 0.59 1.38 0.52 1.44 0.45 1.51 0.37 1.57 0.3 1.63 0.21 1.69 0.13 1.74 0.05 -0.01 11.75 -2.11 -0.06 -2.07 -0.16 -2.01 -0.27 -1.96 -0.37 -1.92 -0.47 -1.86 -0.58 -1.8 -0.68 -1.74 -0.77 -1.69 -0.87 -1.62 -0.97 -1.55 -1.07 -1.49 -1.16 -1.41 -1.25 -1.34 -1.35 -1.26 -1.43 -1.18 -1.53 -1.09 -1.6 -1 -1.69 -0.91 -1.77 -0.81 -1.85 -0.7 -1.91 -0.6 -1.98 -0.48 -2.04 -0.38 -2.08 -0.25 -2.13 -0.15 -2.17 -0.02 -2.2 0.1 -2.23 0.21 -2.24 0.33 -2.26 0.45 -2.27 0.57 -2.27 0 0zm31.7 -80.08l-23.1 83.98 -8.6 -3.9 23.09 -83.99 0 0 8.61 3.91zm43.96 -45.68l-0.02 11.75 0 0 -1.77 0.04 -1.78 0.14 -1.79 0.22 -1.79 0.3 -1.78 0.39 -1.78 0.48 -1.77 0.55 -1.76 0.62 -1.74 0.71 -1.72 0.77 -1.7 0.85 -1.67 0.91 -1.64 0.98 -1.61 1.04 -1.57 1.1 -1.54 1.16 -1.49 1.21 -1.44 1.26 -1.39 1.31 -1.34 1.36 -1.28 1.4 -1.22 1.43 -1.16 1.47 -1.1 1.51 -1.03 1.53 -0.95 1.55 -0.89 1.57 -0.8 1.6 -0.73 1.6 -0.65 1.62 -0.58 1.62 -0.48 1.63 -8.61 -3.91 0.68 -2.25 0.77 -2.21 0.87 -2.16 0.96 -2.11 1.05 -2.06 1.13 -2.02 1.2 -1.95 1.28 -1.91 1.35 -1.85 1.41 -1.79 1.48 -1.73 1.53 -1.68 1.6 -1.61 1.64 -1.55 1.7 -1.49 1.75 -1.42 1.79 -1.35 1.83 -1.29 1.88 -1.21 1.91 -1.14 1.94 -1.06 1.97 -0.98 2.01 -0.9 2.02 -0.82 2.05 -0.73 2.08 -0.65 2.08 -0.55 2.11 -0.46 2.11 -0.36 2.13 -0.27 2.12 -0.16 2.14 -0.05 0 0z"/>
  </g>
  <path class="fil2" d="M90.56 50.31l17.27 0c5.52,0 9.79,1.4 12.82,4.21 3.02,2.8 4.53,6.73 4.53,11.8 0,5.39 -1.82,9.85 -5.48,13.38 -3.63,3.53 -8.42,5.5 -14.33,5.94l0 0.17c2.97,1.13 5.06,4.09 6.24,8.89l5.33 20.89 -6.42 0 -4.83 -19.6c-0.77,-3.05 -1.95,-5.29 -3.55,-6.75 -1.62,-1.46 -3.87,-2.19 -6.79,-2.19l-6.51 0 -6.07 28.54 -5.99 0 13.78 -65.28zm10.12 31.33c5.7,0 10.18,-1.33 13.43,-3.99 3.25,-2.66 4.88,-6.3 4.88,-10.9 0,-3.35 -1.04,-6.04 -3.11,-8.03 -2.05,-2.01 -5.08,-3 -9.06,-3l-11.33 0 -5.52 25.92 10.71 0zm31.86 34.88c-1.12,0 -2.09,-0.4 -2.95,-1.23 -0.85,-0.8 -1.27,-1.85 -1.27,-3.09 0,-1.2 0.4,-2.22 1.22,-3.03 0.83,-0.82 1.82,-1.23 3,-1.23 1.22,0 2.26,0.41 3.11,1.23 0.84,0.81 1.28,1.83 1.28,3.03 0,1.18 -0.44,2.21 -1.31,3.05 -0.87,0.85 -1.89,1.27 -3.08,1.27zm31.46 -66.21l6.06 0 -6.23 29.28 35.52 0 6.28 -29.28 6.01 0 -13.85 65.28 -6 0 6.42 -30.5 -35.56 0 -6.39 30.5 -6.04 0 13.78 -65.28zm40.91 81.15c0.96,0.54 2.16,0.82 3.59,0.82 2.19,0 4.15,-0.64 5.91,-1.91 1.74,-1.27 3.45,-3.26 5.11,-5.94l5.88 -9.24 -8.33 -46.23 5.87 0 6.11 36.84 0.31 3.51 0.19 0 1.22 -2.42 22.59 -37.93 6.47 0 -33.8 54.88c-3.24,5.19 -6.21,8.77 -8.9,10.73 -2.68,1.96 -5.74,2.93 -9.17,2.93 -1.7,0 -3.1,-0.23 -4.18,-0.68l1.13 -5.36zm82.61 -15.87c0.11,-3.03 0.62,-7.18 1.49,-12.44l-0.17 0c-2.56,4.5 -5.19,7.87 -7.88,10.15 -2.7,2.27 -5.78,3.41 -9.25,3.41 -4.16,0 -7.41,-1.46 -9.74,-4.38 -2.33,-2.94 -3.51,-7.15 -3.51,-12.64 0,-5.8 1.23,-11.18 3.7,-16.15 2.45,-4.97 5.82,-8.83 10.13,-11.58 4.29,-2.75 9.08,-4.12 14.36,-4.12 2.91,0 6.05,0.42 9.37,1.28l4.79 -22.54 5.64 0 -11.47 54.45c-0.28,1.15 -0.6,3.51 -0.98,7.1 -0.37,3.57 -0.57,6.06 -0.57,7.46l-5.91 0zm7.46 -41.35c-2.8,-0.91 -5.72,-1.36 -8.78,-1.36 -4.13,0 -7.83,1.12 -11.1,3.34 -3.26,2.22 -5.87,5.39 -7.83,9.51 -1.96,4.12 -2.94,8.6 -2.94,13.4 0,8.36 2.94,12.54 8.8,12.54 2.42,0 4.93,-1.07 7.49,-3.2 2.57,-2.13 4.9,-5.1 7.01,-8.89 2.11,-3.81 3.64,-7.87 4.57,-12.2l2.78 -13.14zm21.08 -5.28l5.69 0 -1.54 10.65 0.17 0c2.07,-3.94 4.23,-6.89 6.5,-8.83 2.25,-1.96 4.86,-2.94 7.8,-2.94 1.74,0 3.36,0.31 4.88,0.95l-1.06 6.15 -0.17 0c-1.65,-1.07 -3.32,-1.6 -5.06,-1.6 -3.3,0 -6.5,2.05 -9.58,6.17 -3.08,4.11 -5.32,9.31 -6.67,15.59l-4.38 20.49 -5.74 0 6.52 -30.6c1.43,-6.41 2.31,-11.76 2.64,-16.03zm40.12 47.75c-5.2,0 -9.28,-1.6 -12.3,-4.8 -3,-3.21 -4.51,-7.67 -4.51,-13.4 0,-5.64 1.08,-10.82 3.22,-15.55 2.15,-4.71 5.15,-8.4 9.02,-11.09 3.87,-2.69 8.12,-4.03 12.77,-4.03 5.16,0 9.25,1.62 12.25,4.85 3,3.23 4.51,7.66 4.51,13.31 0,5.73 -1.08,10.95 -3.22,15.66 -2.13,4.73 -5.11,8.41 -8.92,11.07 -3.81,2.66 -8.08,3.98 -12.82,3.98zm0.42 -5.04c3.43,0 6.59,-1.12 9.46,-3.36 2.89,-2.23 5.15,-5.29 6.76,-9.18 1.63,-3.87 2.44,-8.11 2.44,-12.72 0,-4.39 -1.01,-7.74 -3.03,-10.05 -2.02,-2.32 -4.79,-3.48 -8.3,-3.48 -5.19,0 -9.6,2.42 -13.24,7.29 -3.62,4.86 -5.44,10.85 -5.44,17.96 0,4.25 1.02,7.56 3.06,9.95 2.02,2.4 4.79,3.59 8.29,3.59zm45.38 -61.36l16.85 0c4.8,0 8.59,1.27 11.39,3.82 2.8,2.55 4.18,5.94 4.18,10.18 0,4.59 -1.27,8.43 -3.84,11.52 -2.56,3.09 -6.15,5.07 -10.77,5.95l0 0.19c3.38,0.64 6.03,2.14 7.98,4.52 1.94,2.4 2.9,5.35 2.9,8.86 0,6.39 -2.06,11.35 -6.18,14.91 -4.14,3.56 -9.86,5.33 -17.18,5.33l-19.12 0 13.79 -65.28zm9.48 28.72c5.29,0 9.39,-1.23 12.31,-3.68 2.94,-2.46 4.4,-5.83 4.4,-10.14 0,-2.9 -0.93,-5.22 -2.8,-6.93 -1.86,-1.71 -4.55,-2.56 -8.03,-2.56l-10.39 0 -5.05 23.31 9.56 0zm-4.41 31.15c11.59,0 17.39,-4.79 17.39,-14.35 0,-3.62 -1.23,-6.42 -3.67,-8.4 -2.44,-1.99 -6.06,-2.99 -10.86,-2.99l-9.16 0 -5.31 25.74 11.61 0zm49.94 6.53c-5.19,0 -9.28,-1.6 -12.3,-4.8 -3,-3.21 -4.5,-7.67 -4.5,-13.4 0,-5.64 1.07,-10.82 3.21,-15.55 2.15,-4.71 5.15,-8.4 9.02,-11.09 3.87,-2.69 8.13,-4.03 12.77,-4.03 5.16,0 9.25,1.62 12.25,4.85 3,3.23 4.51,7.66 4.51,13.31 0,5.73 -1.07,10.95 -3.22,15.66 -2.13,4.73 -5.11,8.41 -8.92,11.07 -3.81,2.66 -8.08,3.98 -12.82,3.98zm0.42 -5.04c3.43,0 6.59,-1.12 9.46,-3.36 2.89,-2.23 5.15,-5.29 6.76,-9.18 1.64,-3.87 2.44,-8.11 2.44,-12.72 0,-4.39 -1.01,-7.74 -3.03,-10.05 -2.02,-2.32 -4.78,-3.48 -8.3,-3.48 -5.19,0 -9.6,2.42 -13.24,7.29 -3.62,4.86 -5.44,10.85 -5.44,17.96 0,4.25 1.03,7.56 3.06,9.95 2.02,2.4 4.79,3.59 8.29,3.59zm27.94 16.84c4.45,2.58 8.71,3.87 12.81,3.87 5.16,0 9.26,-1.45 12.34,-4.36 3.06,-2.89 5.36,-7.69 6.92,-14.41l2.31 -10.46 -0.17 0c-2.64,4.61 -5.3,8.02 -7.97,10.23 -2.67,2.22 -5.69,3.33 -9.06,3.33 -4.2,0 -7.46,-1.46 -9.79,-4.37 -2.34,-2.91 -3.52,-7.15 -3.52,-12.7 0,-5.8 1.23,-11.14 3.67,-16.04 2.44,-4.89 5.83,-8.75 10.14,-11.55 4.3,-2.81 9.06,-4.21 14.25,-4.21 2.1,0 4.61,0.17 7.55,0.53 2.96,0.34 5.47,0.75 7.57,1.2l-9.06 42.71c-1.97,9.08 -5.02,15.54 -9.14,19.41 -4.1,3.87 -9.71,5.81 -16.82,5.81 -4.61,0 -8.98,-1.11 -13.11,-3.37l1.08 -5.62zm40.45 -54.68c-2.68,-0.64 -5.74,-0.95 -9.21,-0.95 -3.94,0 -7.57,1.13 -10.86,3.39 -3.28,2.25 -5.88,5.4 -7.79,9.49 -1.89,4.07 -2.84,8.52 -2.84,13.32 0,8.4 2.84,12.59 8.52,12.59 2.64,0 5.3,-1.12 7.94,-3.34 2.66,-2.22 5.02,-5.28 7.09,-9.17 2.06,-3.9 3.51,-7.74 4.32,-11.52l2.83 -13.81zm29.81 42.88c-5.19,0 -9.28,-1.6 -12.3,-4.8 -3,-3.21 -4.5,-7.67 -4.5,-13.4 0,-5.64 1.07,-10.82 3.21,-15.55 2.15,-4.71 5.15,-8.4 9.02,-11.09 3.87,-2.69 8.13,-4.03 12.77,-4.03 5.16,0 9.25,1.62 12.25,4.85 3,3.23 4.51,7.66 4.51,13.31 0,5.73 -1.07,10.95 -3.22,15.66 -2.13,4.73 -5.11,8.41 -8.92,11.07 -3.81,2.66 -8.08,3.98 -12.82,3.98zm0.42 -5.04c3.43,0 6.59,-1.12 9.46,-3.36 2.89,-2.23 5.15,-5.29 6.76,-9.18 1.64,-3.87 2.44,-8.11 2.44,-12.72 0,-4.39 -1.01,-7.74 -3.03,-10.05 -2.02,-2.32 -4.78,-3.48 -8.3,-3.48 -5.19,0 -9.6,2.42 -13.24,7.29 -3.62,4.86 -5.44,10.85 -5.44,17.96 0,4.25 1.03,7.56 3.06,9.95 2.02,2.4 4.79,3.59 8.29,3.59zm40.8 -37.77l-8.16 0 1.13 -4.94 8.02 0 2.5 -11.75 6.16 -1.87 -2.92 13.62 12.15 0 -1.13 4.94 -12.06 0 -5.79 27.19c-0.54,2.45 -0.82,4.46 -0.82,6.01 0,1.53 0.31,2.63 0.95,3.33 0.64,0.7 1.71,1.06 3.2,1.06 1.41,0 3.75,-0.72 6.96,-2.15l-1.13 5.18c-1.04,0.51 -2.27,0.96 -3.72,1.33 -1.44,0.39 -2.69,0.58 -3.71,0.58 -5.58,0 -8.38,-2.89 -8.38,-8.66 0,-1.79 0.28,-3.93 0.87,-6.46l5.88 -27.41zm48.9 41.69c0.1,-3.19 0.63,-7.37 1.53,-12.56l-0.18 0c-2.79,4.91 -5.54,8.41 -8.21,10.52 -2.69,2.1 -5.67,3.16 -8.95,3.16 -4.2,0 -7.45,-1.48 -9.78,-4.43 -2.31,-2.97 -3.48,-7.14 -3.48,-12.5 0,-5.8 1.26,-11.22 3.76,-16.27 2.5,-5.04 5.92,-8.92 10.24,-11.61 4.34,-2.71 9.17,-4.06 14.51,-4.06 3.91,0 8.81,0.59 14.67,1.77l-6.25 30.09c-0.42,2.01 -0.85,4.74 -1.29,8.2 -0.44,3.46 -0.67,6.03 -0.67,7.69l-5.9 0zm7.5 -41.76c-2.89,-0.64 -5.81,-0.95 -8.78,-0.95 -4.13,0 -7.85,1.12 -11.16,3.35 -3.31,2.24 -5.94,5.43 -7.86,9.55 -1.93,4.12 -2.89,8.64 -2.89,13.58 0,8.21 2.92,12.31 8.75,12.31 2.45,0 4.97,-1.07 7.55,-3.2 2.58,-2.13 4.94,-5.14 7.06,-9.06 2.13,-3.9 3.63,-7.83 4.5,-11.8l2.83 -13.78z"/>
 </g>
</svg>
